<svg width="360" height="77" viewBox="0 0 360 77" fill="none" xmlns="http://www.w3.org/2000/svg">
<g filter="url(#filter0_d)">
<path d="M208.897 25.0075C186.453 7.6642 173.547 7.66418 151.103 25.0075C150.393 25.5561 149.512 25.8679 148.615 25.8679L0 25.8679V77.1092H360V25.8679L333.316 25.8679C304.087 25.868 260.338 25.868 211.39 25.8679C210.493 25.8679 209.607 25.5561 208.897 25.0075Z" fill="white"/>
</g>
<g clip-path="url(#clip0)">
<path d="M44.4202 40.1176C44.4202 39.5832 43.9906 39.1461 43.4654 39.1461H38.5192L39.1494 36.0567L39.1685 35.8333C39.1685 35.5321 39.0444 35.2601 38.8534 35.0561L38.0991 34.2886L33.3821 39.0878C33.1242 39.3501 32.9619 39.7192 32.9619 40.1176V46.4323C32.9619 47.2386 33.6017 47.8895 34.3942 47.8895H40.8395C41.4315 47.8895 41.9376 47.5204 42.1572 47.0055L44.3152 41.8663C44.3821 41.7011 44.4202 41.5165 44.4202 41.3319V40.1176V40.1176ZM54.4463 44.0035H48.001C47.409 44.0035 46.9029 44.3727 46.6833 44.8876L44.5253 50.0268C44.4584 50.192 44.4202 50.3766 44.4202 50.5611V51.7755C44.4202 52.3098 44.8499 52.747 45.3751 52.747H50.3213L49.6911 55.8364L49.672 56.0695C49.672 56.3707 49.7961 56.6427 49.9871 56.8467L50.7414 57.6045L55.4584 52.8053C55.7163 52.543 55.8786 52.1738 55.8786 51.7755V45.4608C55.8786 44.6544 55.2388 44.0035 54.4463 44.0035Z" stroke="#3C3C43" stroke-opacity="0.7" stroke-width="1.2" stroke-linejoin="round"/>
</g>
<path d="M26.0982 61.3885V62.0915H23.2197V64.324H25.5567V65.027H23.2197V68.01H22.3552V61.3885H26.0982ZM31.8924 65.2075C31.8924 65.3722 31.8829 65.5463 31.8639 65.73H27.7029C27.7345 66.243 27.9087 66.6452 28.2254 66.9365C28.5484 67.2215 28.9379 67.364 29.3939 67.364C29.7675 67.364 30.0779 67.2785 30.3249 67.1075C30.5782 66.9302 30.7555 66.6958 30.8569 66.4045H31.7879C31.6485 66.9048 31.3699 67.3133 30.9519 67.63C30.5339 67.9403 30.0145 68.0955 29.3939 68.0955C28.8999 68.0955 28.4565 67.9847 28.0639 67.763C27.6775 67.5413 27.3735 67.2278 27.1519 66.8225C26.9302 66.4108 26.8194 65.9358 26.8194 65.3975C26.8194 64.8592 26.927 64.3873 27.1424 63.982C27.3577 63.5767 27.6585 63.2663 28.0449 63.051C28.4375 62.8293 28.8872 62.7185 29.3939 62.7185C29.8879 62.7185 30.3249 62.8262 30.7049 63.0415C31.0849 63.2568 31.3762 63.5545 31.5789 63.9345C31.7879 64.3082 31.8924 64.7325 31.8924 65.2075ZM30.9994 65.027C30.9994 64.6977 30.9265 64.4158 30.7809 64.1815C30.6352 63.9408 30.4357 63.7603 30.1824 63.64C29.9354 63.5133 29.6599 63.45 29.3559 63.45C28.9189 63.45 28.5452 63.5893 28.2349 63.868C27.9309 64.1467 27.7567 64.533 27.7124 65.027H30.9994ZM37.7835 65.2075C37.7835 65.3722 37.774 65.5463 37.755 65.73H33.594C33.6256 66.243 33.7998 66.6452 34.1165 66.9365C34.4395 67.2215 34.829 67.364 35.285 67.364C35.6586 67.364 35.969 67.2785 36.216 67.1075C36.4693 66.9302 36.6466 66.6958 36.748 66.4045H37.679C37.5396 66.9048 37.261 67.3133 36.843 67.63C36.425 67.9403 35.9056 68.0955 35.285 68.0955C34.791 68.0955 34.3476 67.9847 33.955 67.763C33.5686 67.5413 33.2646 67.2278 33.043 66.8225C32.8213 66.4108 32.7105 65.9358 32.7105 65.3975C32.7105 64.8592 32.8181 64.3873 33.0335 63.982C33.2488 63.5767 33.5496 63.2663 33.936 63.051C34.3286 62.8293 34.7783 62.7185 35.285 62.7185C35.779 62.7185 36.216 62.8262 36.596 63.0415C36.976 63.2568 37.2673 63.5545 37.47 63.9345C37.679 64.3082 37.7835 64.7325 37.7835 65.2075ZM36.8905 65.027C36.8905 64.6977 36.8176 64.4158 36.672 64.1815C36.5263 63.9408 36.3268 63.7603 36.0735 63.64C35.8265 63.5133 35.551 63.45 35.247 63.45C34.81 63.45 34.4363 63.5893 34.126 63.868C33.822 64.1467 33.6478 64.533 33.6035 65.027H36.8905ZM38.6016 65.388C38.6016 64.856 38.7092 64.3905 38.9246 63.9915C39.1399 63.5862 39.4344 63.2727 39.8081 63.051C40.1881 62.8293 40.6124 62.7185 41.0811 62.7185C41.4864 62.7185 41.8632 62.8135 42.2116 63.0035C42.5599 63.1872 42.8259 63.431 43.0096 63.735V60.98H43.8836V68.01H43.0096V67.0315C42.8386 67.3418 42.5852 67.5983 42.2496 67.801C41.9139 67.9973 41.5212 68.0955 41.0716 68.0955C40.6092 68.0955 40.1881 67.9815 39.8081 67.7535C39.4344 67.5255 39.1399 67.2057 38.9246 66.794C38.7092 66.3823 38.6016 65.9137 38.6016 65.388ZM43.0096 65.3975C43.0096 65.0048 42.9304 64.6628 42.7721 64.3715C42.6137 64.0802 42.3984 63.8585 42.1261 63.7065C41.8601 63.5482 41.5656 63.469 41.2426 63.469C40.9196 63.469 40.6251 63.545 40.3591 63.697C40.0931 63.849 39.8809 64.0707 39.7226 64.362C39.5642 64.6533 39.4851 64.9953 39.4851 65.388C39.4851 65.787 39.5642 66.1353 39.7226 66.433C39.8809 66.7243 40.0931 66.9492 40.3591 67.1075C40.6251 67.2595 40.9196 67.3355 41.2426 67.3355C41.5656 67.3355 41.8601 67.2595 42.1261 67.1075C42.3984 66.9492 42.6137 66.7243 42.7721 66.433C42.9304 66.1353 43.0096 65.7902 43.0096 65.3975ZM46.209 63.773C46.3863 63.4627 46.646 63.2093 46.988 63.013C47.33 62.8167 47.7195 62.7185 48.1565 62.7185C48.6252 62.7185 49.0463 62.8293 49.42 63.051C49.7937 63.2727 50.0882 63.5862 50.3035 63.9915C50.5188 64.3905 50.6265 64.856 50.6265 65.388C50.6265 65.9137 50.5188 66.3823 50.3035 66.794C50.0882 67.2057 49.7905 67.5255 49.4105 67.7535C49.0368 67.9815 48.6188 68.0955 48.1565 68.0955C47.7068 68.0955 47.311 67.9973 46.969 67.801C46.6333 67.6047 46.38 67.3545 46.209 67.0505V68.01H45.3445V60.98H46.209V63.773ZM49.743 65.388C49.743 64.9953 49.6638 64.6533 49.5055 64.362C49.3472 64.0707 49.1318 63.849 48.8595 63.697C48.5935 63.545 48.299 63.469 47.976 63.469C47.6593 63.469 47.3648 63.5482 47.0925 63.7065C46.8265 63.8585 46.6112 64.0833 46.4465 64.381C46.2882 64.6723 46.209 65.0112 46.209 65.3975C46.209 65.7902 46.2882 66.1353 46.4465 66.433C46.6112 66.7243 46.8265 66.9492 47.0925 67.1075C47.3648 67.2595 47.6593 67.3355 47.976 67.3355C48.299 67.3355 48.5935 67.2595 48.8595 67.1075C49.1318 66.9492 49.3472 66.7243 49.5055 66.433C49.6638 66.1353 49.743 65.787 49.743 65.388ZM51.4414 65.388C51.4414 64.856 51.5491 64.3905 51.7644 63.9915C51.9798 63.5862 52.2743 63.2727 52.6479 63.051C53.0279 62.8293 53.4491 62.7185 53.9114 62.7185C54.3674 62.7185 54.7633 62.8167 55.0989 63.013C55.4346 63.2093 55.6848 63.4563 55.8494 63.754V62.804H56.7234V68.01H55.8494V67.041C55.6784 67.345 55.4219 67.5983 55.0799 67.801C54.7443 67.9973 54.3516 68.0955 53.9019 68.0955C53.4396 68.0955 53.0216 67.9815 52.6479 67.7535C52.2743 67.5255 51.9798 67.2057 51.7644 66.794C51.5491 66.3823 51.4414 65.9137 51.4414 65.388ZM55.8494 65.3975C55.8494 65.0048 55.7703 64.6628 55.6119 64.3715C55.4536 64.0802 55.2383 63.8585 54.9659 63.7065C54.6999 63.5482 54.4054 63.469 54.0824 63.469C53.7594 63.469 53.4649 63.545 53.1989 63.697C52.9329 63.849 52.7208 64.0707 52.5624 64.362C52.4041 64.6533 52.3249 64.9953 52.3249 65.388C52.3249 65.787 52.4041 66.1353 52.5624 66.433C52.7208 66.7243 52.9329 66.9492 53.1989 67.1075C53.4649 67.2595 53.7594 67.3355 54.0824 67.3355C54.4054 67.3355 54.6999 67.2595 54.9659 67.1075C55.2383 66.9492 55.4536 66.7243 55.6119 66.433C55.7703 66.1353 55.8494 65.7902 55.8494 65.3975ZM57.8613 65.3975C57.8613 64.8592 57.969 64.3905 58.1843 63.9915C58.3997 63.5862 58.6973 63.2727 59.0773 63.051C59.4637 62.8293 59.9038 62.7185 60.3978 62.7185C61.0375 62.7185 61.5632 62.8737 61.9748 63.184C62.3928 63.4943 62.6683 63.925 62.8013 64.476H61.8703C61.7817 64.1593 61.6075 63.9092 61.3478 63.7255C61.0945 63.5418 60.7778 63.45 60.3978 63.45C59.9038 63.45 59.5048 63.621 59.2008 63.963C58.8968 64.2987 58.7448 64.7768 58.7448 65.3975C58.7448 66.0245 58.8968 66.509 59.2008 66.851C59.5048 67.193 59.9038 67.364 60.3978 67.364C60.7778 67.364 61.0945 67.2753 61.3478 67.098C61.6012 66.9207 61.7753 66.6673 61.8703 66.338H62.8013C62.662 66.87 62.3833 67.2975 61.9653 67.6205C61.5473 67.9372 61.0248 68.0955 60.3978 68.0955C59.9038 68.0955 59.4637 67.9847 59.0773 67.763C58.6973 67.5413 58.3997 67.2278 58.1843 66.8225C57.969 66.4172 57.8613 65.9422 57.8613 65.3975ZM66.8619 68.01L64.8194 65.711V68.01H63.9549V60.98H64.8194V65.1125L66.8239 62.804H68.0304L65.5794 65.3975L68.0399 68.01H66.8619Z" fill="#3C3C43" fill-opacity="0.7"/>
<path d="M318.196 61.3885L316.277 68.01H315.308L313.769 62.6805L312.173 68.01L311.213 68.0195L309.361 61.3885H310.282L311.726 67.003L313.322 61.3885H314.291L315.811 66.984L317.265 61.3885H318.196ZM318.819 65.388C318.819 64.856 318.927 64.3905 319.142 63.9915C319.357 63.5862 319.652 63.2727 320.025 63.051C320.405 62.8293 320.827 62.7185 321.289 62.7185C321.745 62.7185 322.141 62.8167 322.476 63.013C322.812 63.2093 323.062 63.4563 323.227 63.754V62.804H324.101V68.01H323.227V67.041C323.056 67.345 322.799 67.5983 322.457 67.801C322.122 67.9973 321.729 68.0955 321.279 68.0955C320.817 68.0955 320.399 67.9815 320.025 67.7535C319.652 67.5255 319.357 67.2057 319.142 66.794C318.927 66.3823 318.819 65.9137 318.819 65.388ZM323.227 65.3975C323.227 65.0048 323.148 64.6628 322.989 64.3715C322.831 64.0802 322.616 63.8585 322.343 63.7065C322.077 63.5482 321.783 63.469 321.46 63.469C321.137 63.469 320.842 63.545 320.576 63.697C320.31 63.849 320.098 64.0707 319.94 64.362C319.782 64.6533 319.702 64.9953 319.702 65.388C319.702 65.787 319.782 66.1353 319.94 66.433C320.098 66.7243 320.31 66.9492 320.576 67.1075C320.842 67.2595 321.137 67.3355 321.46 67.3355C321.783 67.3355 322.077 67.2595 322.343 67.1075C322.616 66.9492 322.831 66.7243 322.989 66.433C323.148 66.1353 323.227 65.7902 323.227 65.3975ZM326.426 60.98V68.01H325.562V60.98H326.426ZM328.764 60.98V68.01H327.9V60.98H328.764ZM334.988 65.2075C334.988 65.3722 334.978 65.5463 334.959 65.73H330.798C330.83 66.243 331.004 66.6452 331.321 66.9365C331.644 67.2215 332.033 67.364 332.489 67.364C332.863 67.364 333.173 67.2785 333.42 67.1075C333.673 66.9302 333.851 66.6958 333.952 66.4045H334.883C334.744 66.9048 334.465 67.3133 334.047 67.63C333.629 67.9403 333.11 68.0955 332.489 68.0955C331.995 68.0955 331.552 67.9847 331.159 67.763C330.773 67.5413 330.469 67.2278 330.247 66.8225C330.025 66.4108 329.915 65.9358 329.915 65.3975C329.915 64.8592 330.022 64.3873 330.238 63.982C330.453 63.5767 330.754 63.2663 331.14 63.051C331.533 62.8293 331.982 62.7185 332.489 62.7185C332.983 62.7185 333.42 62.8262 333.8 63.0415C334.18 63.2568 334.471 63.5545 334.674 63.9345C334.883 64.3082 334.988 64.7325 334.988 65.2075ZM334.095 65.027C334.095 64.6977 334.022 64.4158 333.876 64.1815C333.73 63.9408 333.531 63.7603 333.278 63.64C333.031 63.5133 332.755 63.45 332.451 63.45C332.014 63.45 331.64 63.5893 331.33 63.868C331.026 64.1467 330.852 64.533 330.808 65.027H334.095ZM337.183 63.5165V66.585C337.183 66.8383 337.237 67.0188 337.345 67.1265C337.452 67.2278 337.639 67.2785 337.905 67.2785H338.542V68.01H337.763C337.281 68.01 336.92 67.8992 336.68 67.6775C336.439 67.4558 336.319 67.0917 336.319 66.585V63.5165H335.644V62.804H336.319V61.493H337.183V62.804H338.542V63.5165H337.183Z" fill="#3C3C43" fill-opacity="0.7"/>
<path d="M332.125 38.019H314.875C313.816 38.019 312.958 38.8542 312.958 39.8843V51.076C312.958 52.1061 313.816 52.9412 314.875 52.9412H332.125C333.183 52.9412 334.041 52.1061 334.041 51.076V39.8843C334.041 38.8542 333.183 38.019 332.125 38.019Z" stroke="#3C3C43" stroke-opacity="0.7" stroke-width="1.3" stroke-linecap="round" stroke-linejoin="round"/>
<path d="M312.958 43.615H334.041" stroke="#3C3C43" stroke-opacity="0.7" stroke-width="1.3" stroke-linecap="round" stroke-linejoin="round"/>
<path d="M103.807 68.0765C103.37 68.0765 102.978 68.0005 102.629 67.8485C102.287 67.6902 102.018 67.4748 101.822 67.2025C101.625 66.9238 101.524 66.604 101.518 66.243H102.439C102.471 66.5533 102.598 66.8162 102.819 67.0315C103.047 67.2405 103.377 67.345 103.807 67.345C104.219 67.345 104.542 67.2437 104.776 67.041C105.017 66.832 105.137 66.566 105.137 66.243C105.137 65.9897 105.068 65.7838 104.928 65.6255C104.789 65.4672 104.615 65.3468 104.406 65.2645C104.197 65.1822 103.915 65.0935 103.56 64.9985C103.123 64.8845 102.772 64.7705 102.506 64.6565C102.246 64.5425 102.021 64.3652 101.831 64.1245C101.648 63.8775 101.556 63.5482 101.556 63.1365C101.556 62.7755 101.648 62.4557 101.831 62.177C102.015 61.8983 102.271 61.683 102.601 61.531C102.936 61.379 103.32 61.303 103.75 61.303C104.371 61.303 104.878 61.4582 105.27 61.7685C105.669 62.0788 105.894 62.4905 105.945 63.0035H104.995C104.963 62.7502 104.83 62.5285 104.596 62.3385C104.361 62.1422 104.051 62.044 103.665 62.044C103.304 62.044 103.009 62.139 102.781 62.329C102.553 62.5127 102.439 62.7723 102.439 63.108C102.439 63.3487 102.506 63.545 102.639 63.697C102.778 63.849 102.946 63.9662 103.142 64.0485C103.345 64.1245 103.627 64.2132 103.988 64.3145C104.425 64.4348 104.776 64.5552 105.042 64.6755C105.308 64.7895 105.536 64.97 105.726 65.217C105.916 65.4577 106.011 65.787 106.011 66.205C106.011 66.528 105.926 66.832 105.755 67.117C105.584 67.402 105.33 67.6332 104.995 67.8105C104.659 67.9878 104.263 68.0765 103.807 68.0765ZM112.034 65.2075C112.034 65.3722 112.024 65.5463 112.005 65.73H107.844C107.876 66.243 108.05 66.6452 108.367 66.9365C108.69 67.2215 109.079 67.364 109.535 67.364C109.909 67.364 110.219 67.2785 110.466 67.1075C110.719 66.9302 110.897 66.6958 110.998 66.4045H111.929C111.79 66.9048 111.511 67.3133 111.093 67.63C110.675 67.9403 110.156 68.0955 109.535 68.0955C109.041 68.0955 108.598 67.9847 108.205 67.763C107.819 67.5413 107.515 67.2278 107.293 66.8225C107.071 66.4108 106.961 65.9358 106.961 65.3975C106.961 64.8592 107.068 64.3873 107.284 63.982C107.499 63.5767 107.8 63.2663 108.186 63.051C108.579 62.8293 109.028 62.7185 109.535 62.7185C110.029 62.7185 110.466 62.8262 110.846 63.0415C111.226 63.2568 111.517 63.5545 111.72 63.9345C111.929 64.3082 112.034 64.7325 112.034 65.2075ZM111.141 65.027C111.141 64.6977 111.068 64.4158 110.922 64.1815C110.776 63.9408 110.577 63.7603 110.324 63.64C110.077 63.5133 109.801 63.45 109.497 63.45C109.06 63.45 108.686 63.5893 108.376 63.868C108.072 64.1467 107.898 64.533 107.854 65.027H111.141ZM112.852 65.388C112.852 64.856 112.959 64.3905 113.175 63.9915C113.39 63.5862 113.684 63.2727 114.058 63.051C114.438 62.8293 114.859 62.7185 115.322 62.7185C115.778 62.7185 116.173 62.8167 116.509 63.013C116.845 63.2093 117.095 63.4563 117.26 63.754V62.804H118.134V68.01H117.26V67.041C117.089 67.345 116.832 67.5983 116.49 67.801C116.154 67.9973 115.762 68.0955 115.312 68.0955C114.85 68.0955 114.432 67.9815 114.058 67.7535C113.684 67.5255 113.39 67.2057 113.175 66.794C112.959 66.3823 112.852 65.9137 112.852 65.388ZM117.26 65.3975C117.26 65.0048 117.18 64.6628 117.022 64.3715C116.864 64.0802 116.648 63.8585 116.376 63.7065C116.11 63.5482 115.816 63.469 115.493 63.469C115.17 63.469 114.875 63.545 114.609 63.697C114.343 63.849 114.131 64.0707 113.973 64.362C113.814 64.6533 113.735 64.9953 113.735 65.388C113.735 65.787 113.814 66.1353 113.973 66.433C114.131 66.7243 114.343 66.9492 114.609 67.1075C114.875 67.2595 115.17 67.3355 115.493 67.3355C115.816 67.3355 116.11 67.2595 116.376 67.1075C116.648 66.9492 116.864 66.7243 117.022 66.433C117.18 66.1353 117.26 65.7902 117.26 65.3975ZM120.459 63.6495C120.611 63.3518 120.826 63.1207 121.105 62.956C121.39 62.7913 121.735 62.709 122.141 62.709V63.602H121.913C120.944 63.602 120.459 64.1277 120.459 65.179V68.01H119.595V62.804H120.459V63.6495ZM122.815 65.3975C122.815 64.8592 122.923 64.3905 123.138 63.9915C123.354 63.5862 123.651 63.2727 124.031 63.051C124.418 62.8293 124.858 62.7185 125.352 62.7185C125.992 62.7185 126.517 62.8737 126.929 63.184C127.347 63.4943 127.622 63.925 127.755 64.476H126.824C126.736 64.1593 126.562 63.9092 126.302 63.7255C126.049 63.5418 125.732 63.45 125.352 63.45C124.858 63.45 124.459 63.621 124.155 63.963C123.851 64.2987 123.699 64.7768 123.699 65.3975C123.699 66.0245 123.851 66.509 124.155 66.851C124.459 67.193 124.858 67.364 125.352 67.364C125.732 67.364 126.049 67.2753 126.302 67.098C126.555 66.9207 126.729 66.6673 126.824 66.338H127.755C127.616 66.87 127.337 67.2975 126.919 67.6205C126.501 67.9372 125.979 68.0955 125.352 68.0955C124.858 68.0955 124.418 67.9847 124.031 67.763C123.651 67.5413 123.354 67.2278 123.138 66.8225C122.923 66.4172 122.815 65.9422 122.815 65.3975ZM131.493 62.709C131.886 62.709 132.24 62.7945 132.557 62.9655C132.874 63.1302 133.121 63.3803 133.298 63.716C133.482 64.0517 133.573 64.4602 133.573 64.9415V68.01H132.718V65.065C132.718 64.5457 132.589 64.1498 132.329 63.8775C132.069 63.5988 131.715 63.4595 131.265 63.4595C130.809 63.4595 130.445 63.602 130.172 63.887C129.906 64.172 129.773 64.5868 129.773 65.1315V68.01H128.909V60.98H129.773V63.545C129.944 63.279 130.179 63.0732 130.476 62.9275C130.78 62.7818 131.119 62.709 131.493 62.709Z" fill="#3C3C43" fill-opacity="0.7"/>
<path d="M115.948 52.1305C120.182 52.1305 123.615 48.79 123.615 44.6694C123.615 40.5487 120.182 37.2083 115.948 37.2083C111.714 37.2083 108.281 40.5487 108.281 44.6694C108.281 48.79 111.714 52.1305 115.948 52.1305Z" stroke="#3C3C43" stroke-opacity="0.7" stroke-width="1.3" stroke-linecap="round" stroke-linejoin="round"/>
<path d="M126.491 54.9283L121.699 50.2651" stroke="#3C3C43" stroke-opacity="0.7" stroke-width="1.3" stroke-linecap="round" stroke-linejoin="round"/>
<path opacity="0.43" d="M214 27.571H287" stroke="#FAFAFA" stroke-width="2.5" stroke-linecap="round"/>
<path d="M173.844 60.4933V68.8333H172.476V63.1213L169.932 68.8333H168.984L166.428 63.1213V68.8333H165.06V60.4933H166.536L169.464 67.0333L172.38 60.4933H173.844ZM181.702 65.3653C181.702 65.6133 181.686 65.8373 181.654 66.0373H176.602C176.642 66.5653 176.838 66.9893 177.19 67.3093C177.542 67.6293 177.974 67.7893 178.486 67.7893C179.222 67.7893 179.742 67.4813 180.046 66.8653H181.522C181.322 67.4733 180.958 67.9733 180.43 68.3653C179.91 68.7493 179.262 68.9413 178.486 68.9413C177.854 68.9413 177.286 68.8013 176.782 68.5213C176.286 68.2333 175.894 67.8333 175.606 67.3213C175.326 66.8013 175.186 66.2013 175.186 65.5213C175.186 64.8413 175.322 64.2453 175.594 63.7333C175.874 63.2133 176.262 62.8133 176.758 62.5333C177.262 62.2533 177.838 62.1133 178.486 62.1133C179.11 62.1133 179.666 62.2493 180.154 62.5213C180.642 62.7933 181.022 63.1773 181.294 63.6733C181.566 64.1613 181.702 64.7253 181.702 65.3653ZM180.274 64.9333C180.266 64.4293 180.086 64.0253 179.734 63.7213C179.382 63.4173 178.946 63.2653 178.426 63.2653C177.954 63.2653 177.55 63.4173 177.214 63.7213C176.878 64.0173 176.678 64.4213 176.614 64.9333H180.274ZM186.385 62.1133C186.905 62.1133 187.369 62.2213 187.777 62.4373C188.193 62.6533 188.517 62.9733 188.749 63.3973C188.981 63.8213 189.097 64.3333 189.097 64.9333V68.8333H187.741V65.1373C187.741 64.5453 187.593 64.0933 187.297 63.7813C187.001 63.4613 186.597 63.3013 186.085 63.3013C185.573 63.3013 185.165 63.4613 184.861 63.7813C184.565 64.0933 184.417 64.5453 184.417 65.1373V68.8333H183.049V62.2213H184.417V62.9773C184.641 62.7053 184.925 62.4933 185.269 62.3413C185.621 62.1893 185.993 62.1133 186.385 62.1133ZM196.83 62.2213V68.8333H195.462V68.0533C195.246 68.3253 194.962 68.5413 194.61 68.7013C194.266 68.8533 193.898 68.9293 193.506 68.9293C192.986 68.9293 192.518 68.8213 192.102 68.6053C191.694 68.3893 191.37 68.0693 191.13 67.6453C190.898 67.2213 190.782 66.7093 190.782 66.1093V62.2213H192.138V65.9053C192.138 66.4973 192.286 66.9533 192.582 67.2733C192.878 67.5853 193.282 67.7413 193.794 67.7413C194.306 67.7413 194.71 67.5853 195.006 67.2733C195.31 66.9533 195.462 66.4973 195.462 65.9053V62.2213H196.83Z" fill="#3C3C43"/>
<path d="M184.214 33.4548C184.328 33.1725 184.651 33.0324 184.928 33.1581C186.947 34.0742 188.622 35.6044 189.702 37.531C190.872 39.6168 191.272 42.0382 190.835 44.3826C190.398 46.727 189.15 48.8493 187.305 50.388C185.459 51.9267 183.13 52.7865 180.714 52.8209C178.298 52.8553 175.944 52.0622 174.055 50.5768C172.165 49.0913 170.856 47.0054 170.35 44.6744C169.844 42.3435 170.174 39.9117 171.282 37.7934C172.305 35.8369 173.935 34.2596 175.926 33.2864C176.2 33.1524 176.525 33.2806 176.646 33.5576V33.5576C176.769 33.8384 176.636 34.1649 176.359 34.3028C174.608 35.1744 173.176 36.5707 172.273 38.2979C171.283 40.19 170.989 42.3622 171.44 44.4443C171.892 46.5264 173.061 48.3897 174.749 49.7165C176.437 51.0434 178.54 51.7518 180.698 51.7211C182.856 51.6903 184.937 50.9223 186.585 49.5479C188.234 48.1735 189.348 46.2777 189.739 44.1836C190.129 42.0895 189.771 39.9266 188.726 38.0634C187.771 36.3595 186.295 35.0027 184.515 34.1818C184.239 34.0544 184.101 33.737 184.214 33.4548V33.4548Z" fill="#3C3C43" stroke="#3C3C43" stroke-width="0.5" stroke-linejoin="round"/>
<line x1="180.3" y1="38.3037" x2="180.3" y2="31.8116" stroke="#3C3C43" stroke-width="1.4" stroke-linecap="round"/>
<path d="M239.527 65.0634C239.527 64.4174 239.673 63.8379 239.964 63.3249C240.255 62.8056 240.651 62.4002 241.152 62.1089C241.658 61.8176 242.219 61.6719 242.833 61.6719C243.555 61.6719 244.185 61.8461 244.724 62.1944C245.262 62.5427 245.655 63.0367 245.902 63.6764H244.866C244.682 63.2774 244.416 62.9702 244.068 62.7549C243.726 62.5396 243.314 62.4319 242.833 62.4319C242.371 62.4319 241.956 62.5396 241.589 62.7549C241.221 62.9702 240.933 63.2774 240.724 63.6764C240.515 64.0691 240.411 64.5314 240.411 65.0634C240.411 65.5891 240.515 66.0514 240.724 66.4504C240.933 66.8431 241.221 67.1471 241.589 67.3624C241.956 67.5777 242.371 67.6854 242.833 67.6854C243.314 67.6854 243.726 67.5809 244.068 67.3719C244.416 67.1566 244.682 66.8494 244.866 66.4504H245.902C245.655 67.0837 245.262 67.5746 244.724 67.9229C244.185 68.2649 243.555 68.4359 242.833 68.4359C242.219 68.4359 241.658 68.2934 241.152 68.0084C240.651 67.7171 240.255 67.3149 239.964 66.8019C239.673 66.2889 239.527 65.7094 239.527 65.0634ZM246.866 65.7569C246.866 65.2249 246.973 64.7594 247.189 64.3604C247.404 63.9551 247.698 63.6416 248.072 63.4199C248.452 63.1982 248.873 63.0874 249.336 63.0874C249.792 63.0874 250.187 63.1856 250.523 63.3819C250.859 63.5782 251.109 63.8252 251.274 64.1229V63.1729H252.148V68.3789H251.274V67.4099C251.103 67.7139 250.846 67.9672 250.504 68.1699C250.168 68.3662 249.776 68.4644 249.326 68.4644C248.864 68.4644 248.446 68.3504 248.072 68.1224C247.698 67.8944 247.404 67.5746 247.189 67.1629C246.973 66.7512 246.866 66.2826 246.866 65.7569ZM251.274 65.7664C251.274 65.3737 251.194 65.0317 251.036 64.7404C250.878 64.4491 250.662 64.2274 250.39 64.0754C250.124 63.9171 249.83 63.8379 249.507 63.8379C249.184 63.8379 248.889 63.9139 248.623 64.0659C248.357 64.2179 248.145 64.4396 247.987 64.7309C247.828 65.0222 247.749 65.3642 247.749 65.7569C247.749 66.1559 247.828 66.5042 247.987 66.8019C248.145 67.0932 248.357 67.3181 248.623 67.4764C248.889 67.6284 249.184 67.7044 249.507 67.7044C249.83 67.7044 250.124 67.6284 250.39 67.4764C250.662 67.3181 250.878 67.0932 251.036 66.8019C251.194 66.5042 251.274 66.1591 251.274 65.7664ZM254.473 64.0184C254.625 63.7207 254.84 63.4896 255.119 63.3249C255.404 63.1602 255.749 63.0779 256.154 63.0779V63.9709H255.926C254.957 63.9709 254.473 64.4966 254.473 65.5479V68.3789H253.608V63.1729H254.473V64.0184ZM258.207 63.8854V66.9539C258.207 67.2072 258.261 67.3877 258.368 67.4954C258.476 67.5967 258.663 67.6474 258.929 67.6474H259.565V68.3789H258.786C258.305 68.3789 257.944 68.2681 257.703 68.0464C257.463 67.8247 257.342 67.4606 257.342 66.9539V63.8854H256.668V63.1729H257.342V61.8619H258.207V63.1729H259.565V63.8854H258.207Z" fill="#3C3C43" fill-opacity="0.7"/>
<g clip-path="url(#clip1)">
<path d="M244.625 55.4882C245.155 55.4882 245.584 55.0649 245.584 54.5428C245.584 54.0207 245.155 53.5974 244.625 53.5974C244.096 53.5974 243.667 54.0207 243.667 54.5428C243.667 55.0649 244.096 55.4882 244.625 55.4882Z" stroke="#3C3C43" stroke-opacity="0.7" stroke-width="2" stroke-linecap="round" stroke-linejoin="round"/>
<path d="M255.166 55.4882C255.696 55.4882 256.125 55.0649 256.125 54.5428C256.125 54.0207 255.696 53.5974 255.166 53.5974C254.637 53.5974 254.208 54.0207 254.208 54.5428C254.208 55.0649 254.637 55.4882 255.166 55.4882Z" stroke="#3C3C43" stroke-opacity="0.7" stroke-width="2" stroke-linecap="round" stroke-linejoin="round"/>
<path d="M236.958 35.6348H238.396L243.36 48.2936C243.447 48.7289 243.687 49.1199 244.038 49.3982C244.388 49.6764 244.827 49.8242 245.276 49.8157H254.591C255.041 49.8242 255.48 49.6764 255.83 49.3982C256.18 49.1199 256.42 48.7289 256.508 48.2936L258.041 40.3618H241.75" stroke="#3C3C43" stroke-opacity="0.7" stroke-width="1.3" stroke-linecap="round" stroke-linejoin="round"/>
</g>
<defs>
<filter id="filter0_d" x="-8" y="0" width="376" height="81.1091" filterUnits="userSpaceOnUse" color-interpolation-filters="sRGB">
<feFlood flood-opacity="0" result="BackgroundImageFix"/>
<feColorMatrix in="SourceAlpha" type="matrix" values="0 0 0 0 0 0 0 0 0 0 0 0 0 0 0 0 0 0 127 0" result="hardAlpha"/>
<feOffset dy="-4"/>
<feGaussianBlur stdDeviation="4"/>
<feColorMatrix type="matrix" values="0 0 0 0 0.406875 0 0 0 0 0.406875 0 0 0 0 0.45 0 0 0 0.2 0"/>
<feBlend mode="normal" in2="BackgroundImageFix" result="effect1_dropShadow"/>
<feBlend mode="normal" in="SourceGraphic" in2="effect1_dropShadow" result="shape"/>
</filter>
<clipPath id="clip0">
<rect width="25" height="24.3297" fill="white" transform="translate(32 34.2886)"/>
</clipPath>
<clipPath id="clip1">
<rect width="23" height="22.6896" fill="white" transform="translate(236 34.6895)"/>
</clipPath>
</defs>
</svg>
