<svg width="191" height="107" viewBox="0 0 191 107" fill="none" xmlns="http://www.w3.org/2000/svg">
<g clip-path="url(#clip0_2546:27767)">
<rect width="191" height="107" rx="19.11" fill="#FFB9B9"/>
<g filter="url(#filter0_i_2546:27767)">
<path d="M107 0H171.964C182.517 0 191.071 8.55456 191.071 19.1071V87.8929C191.071 98.4454 182.517 107 171.964 107H107V0Z" fill="#FA8B8A"/>
<path d="M131.84 39.1162L160.501 71.689" stroke="white" stroke-width="3.82143" stroke-linecap="round" stroke-linejoin="round"/>
<path d="M132.602 72.6071L159.746 38.2142" stroke="white" stroke-width="3.82143" stroke-linecap="round" stroke-linejoin="round"/>
</g>
<g clip-path="url(#clip1_2546:27767)">
<path d="M60.3732 41.0219H48.6284C48.0202 41.0219 47.5273 41.5148 47.5273 42.1229C47.5273 42.731 48.0202 43.2239 48.6284 43.2239H60.3732C60.9814 43.2239 61.4743 42.731 61.4743 42.1229C61.4743 41.5148 60.9814 41.0219 60.3732 41.0219Z" fill="black"/>
<path d="M88.5433 49.0486C84.8996 46.4236 80.2083 45.7721 75.9938 47.3058C75.223 47.5863 74.4859 47.932 73.7869 48.3402L73.9361 46.5889C74.081 44.8875 73.7787 43.228 73.0766 41.756H74.6871C80.035 41.756 85.2973 37.5018 86.4179 32.2726L88.9766 20.3322C89.0848 19.8266 88.8267 19.3136 88.3561 19.0995C87.8858 18.8851 87.3292 19.0273 87.0189 19.441L81.7338 26.4878C80.0028 28.7957 76.1035 30.7453 73.2188 30.7453H68.515C67.5325 29.8351 66.2191 29.2771 64.7772 29.2771H44.2239C42.782 29.2771 41.4687 29.8351 40.4861 30.7453H35.7823C32.8976 30.7453 28.9983 28.7956 27.2673 26.4878L21.9823 19.441C21.6723 19.0273 21.1159 18.8854 20.6451 19.0995C20.1742 19.3138 19.9163 19.8268 20.0245 20.3324L22.5832 32.2727C23.7038 37.502 28.9662 41.7562 34.314 41.7562H35.9245C35.2223 43.2281 34.9202 44.8878 35.0649 46.5892L35.2141 48.3404C34.5152 47.9323 33.778 47.5865 33.0073 47.3059C28.7927 45.7722 24.1014 46.4236 20.4578 49.0487C20.0909 49.313 19.9229 49.7746 20.0341 50.2128C21.1381 54.5659 24.3129 58.0807 28.5275 59.6147C30.0176 60.157 31.587 60.4284 33.1568 60.4284C34.1832 60.4284 35.209 60.3094 36.2132 60.0768L36.5075 63.5356C36.756 66.4585 38.3341 69.2553 40.758 71.1071L42.6107 82.7242C43.0747 85.634 45.8494 88.0012 48.796 88.0012H60.2052C63.1517 88.0012 65.9264 85.6338 66.3905 82.7242L68.2432 71.1071C70.6671 69.2553 72.2452 66.4583 72.4937 63.5356L72.7881 60.0768C73.7921 60.3094 74.8181 60.4283 75.8444 60.4283C77.4139 60.4283 78.9837 60.1568 80.4737 59.6146C84.688 58.0805 87.8631 54.5659 88.9671 50.2128C89.078 49.7746 88.9103 49.3128 88.5433 49.0486ZM69.967 32.9474H73.2188C76.8203 32.9475 81.3345 30.6904 83.4954 27.8092L85.7727 24.7729L84.2644 31.8113C83.3653 36.0081 78.9793 39.5539 74.6871 39.5539H71.1055C71.0975 39.5538 71.0896 39.5539 71.0818 39.5539H69.9671C70.1707 38.9796 70.2827 38.3622 70.2827 37.7188V34.7826C70.2826 34.1391 70.1706 33.5216 69.967 32.9474ZM34.3142 39.5541C30.0219 39.5539 25.6359 36.0082 24.7368 31.8113L23.2283 24.7729L25.5056 27.8092C27.6666 30.6906 32.1808 32.9476 35.7823 32.9476H39.0341C38.8303 33.522 38.7185 34.1394 38.7185 34.7828V37.7189C38.7185 38.3623 38.8305 38.9797 39.0341 39.5541H37.918C37.911 39.5541 37.9038 39.5539 37.8968 39.5541H34.3142ZM64.2158 82.3775C63.92 84.2321 62.0834 85.7992 60.2052 85.7992H55.6017V81.8621H58.905C59.5132 81.8621 60.0061 81.3691 60.0061 80.7611V79.2929C60.0061 78.6848 59.5132 78.1919 58.905 78.1919C58.2968 78.1919 57.804 78.6848 57.804 79.2929V79.6599H51.1974V79.2929C51.1974 78.6848 50.7045 78.1919 50.0963 78.1919C49.4881 78.1919 48.9953 78.6848 48.9953 79.2929V80.7611C48.9953 81.3691 49.4881 81.8621 50.0963 81.8621H53.3996V85.7992H48.7961C46.918 85.7992 45.0812 84.2323 44.7856 82.3775L43.7669 75.9896H65.2348L64.2158 82.3775ZM79.7203 57.545C77.5224 58.3449 75.2083 58.4484 72.9767 57.8578L73.2101 55.1157C73.2618 54.5097 72.8125 53.9769 72.2064 53.9251C71.6032 53.874 71.0675 54.3228 71.016 54.9289L70.7927 57.552H62.9955C62.3873 57.552 61.8944 58.045 61.8944 58.653V61.5892C61.8944 62.1973 62.3873 62.6902 62.9955 62.6902C63.6037 62.6902 64.0965 62.1973 64.0965 61.5892V59.7541H70.6052L70.2993 63.3487C70.0924 65.7797 68.7084 68.11 66.5971 69.5825C66.3518 69.7535 66.1866 70.0169 66.1397 70.3123L65.5857 73.7871H43.4154L42.8612 70.3123C42.8142 70.017 42.6491 69.7535 42.4038 69.5825C40.2924 68.11 38.9085 65.7795 38.7016 63.3486L38.3957 59.7541H44.9046V61.5892C44.9046 62.1973 45.3974 62.6902 46.0056 62.6902C46.6138 62.6902 47.1067 62.1973 47.1067 61.5892V58.653C47.1067 58.045 46.6138 57.552 46.0056 57.552H38.2084L37.9851 54.9289C37.9336 54.3229 37.3991 53.8747 36.7947 53.9251C36.1886 53.9767 35.7394 54.5097 35.7909 55.1157L36.0243 57.8576C33.7927 58.4483 31.4784 58.3447 29.2807 57.5448C25.9929 56.3482 23.4603 53.7112 22.3821 50.4078C25.3318 48.5705 28.9669 48.1785 32.2542 49.375C33.5605 49.8504 34.7512 50.5489 35.793 51.4505C36.1315 51.7435 36.6141 51.8024 37.0134 51.599C37.4126 51.3957 37.6488 50.9709 37.6106 50.5245L37.2592 46.402C37.1156 44.7116 37.5425 43.0817 38.4639 41.7558H40.4861C41.4685 42.666 42.782 43.2239 44.2239 43.2239C44.8321 43.2239 45.3249 42.7309 45.3249 42.1229C45.3249 41.5148 44.8321 41.0218 44.2239 41.0218C43.2727 41.0218 42.4147 40.6173 41.8115 39.9717C41.7831 39.9357 41.7526 39.9014 41.7199 39.8694C41.2223 39.291 40.9207 38.5398 40.9207 37.7188V34.7826C40.9207 33.9616 41.2225 33.2103 41.7199 32.632C41.7526 32.5998 41.783 32.5657 41.8115 32.5297C42.4147 31.8842 43.2728 31.4796 44.2239 31.4796H64.7772C65.7284 31.4796 66.5863 31.8842 67.1896 32.5297C67.218 32.5657 67.2484 32.6001 67.2812 32.632C67.7788 33.2104 68.0804 33.9616 68.0804 34.7826V37.7188C68.0804 38.5398 67.7786 39.2911 67.2812 39.8694C67.2484 39.9016 67.2181 39.9357 67.1896 39.9717C66.5863 40.6173 65.7281 41.0218 64.7772 41.0218C64.169 41.0218 63.6762 41.5148 63.6762 42.1229C63.6762 42.7309 64.169 43.2239 64.7772 43.2239C66.2191 43.2239 67.5325 42.666 68.515 41.7558H70.5372C71.4586 43.0817 71.8858 44.7115 71.7419 46.4019L71.3905 50.5245C71.3524 50.971 71.5888 51.3958 71.9878 51.599C72.387 51.8025 72.8696 51.7435 73.2083 51.4505C74.2501 50.5487 75.4407 49.8504 76.747 49.375C80.0349 48.1784 83.6698 48.5705 86.6191 50.408C85.5408 53.7114 83.0081 56.3484 79.7203 57.545Z" fill="black"/>
</g>
</g>
<defs>
<filter id="filter0_i_2546:27767" x="107" y="0" width="84.0703" height="122.286" filterUnits="userSpaceOnUse" color-interpolation-filters="sRGB">
<feFlood flood-opacity="0" result="BackgroundImageFix"/>
<feBlend mode="normal" in="SourceGraphic" in2="BackgroundImageFix" result="shape"/>
<feColorMatrix in="SourceAlpha" type="matrix" values="0 0 0 0 0 0 0 0 0 0 0 0 0 0 0 0 0 0 127 0" result="hardAlpha"/>
<feOffset dy="15.2857"/>
<feGaussianBlur stdDeviation="15.2857"/>
<feComposite in2="hardAlpha" operator="arithmetic" k2="-1" k3="1"/>
<feColorMatrix type="matrix" values="0 0 0 0 0.470833 0 0 0 0 0.360874 0 0 0 0 0.284462 0 0 0 0.06 0"/>
<feBlend mode="normal" in2="shape" result="effect1_innerShadow_2546:27767"/>
</filter>
<clipPath id="clip0_2546:27767">
<rect width="191" height="107" rx="19.11" fill="white"/>
</clipPath>
<clipPath id="clip1_2546:27767">
<rect width="69.001" height="69.001" fill="white" transform="translate(20 19)"/>
</clipPath>
</defs>
</svg>
