<svg width="191" height="107" viewBox="0 0 191 107" fill="none" xmlns="http://www.w3.org/2000/svg">
<g clip-path="url(#clip0_2546:27756)">
<rect width="191" height="107" rx="19.11" fill="#FFB9B9"/>
<g filter="url(#filter0_i_2546:27756)">
<path d="M107 0H171.964C182.517 0 191.071 8.55456 191.071 19.1071V87.8929C191.071 98.4454 182.517 107 171.964 107H107V0Z" fill="#FA8B8A"/>
<path d="M131.84 39.1162L160.501 71.689" stroke="white" stroke-width="3.82143" stroke-linecap="round" stroke-linejoin="round"/>
<path d="M132.602 72.6071L159.746 38.2142" stroke="white" stroke-width="3.82143" stroke-linecap="round" stroke-linejoin="round"/>
</g>
<g clip-path="url(#clip1_2546:27756)">
<path d="M67.3538 45.8225L67.1722 45.1297C66.9776 44.3878 66.2177 43.9439 65.4761 44.1388C64.7341 44.3333 64.2905 45.0927 64.4849 45.8348L64.6665 46.5273C65.9775 51.5296 65.262 56.7431 62.6518 61.2073C60.0417 65.6715 55.8495 68.852 50.8471 70.1629C49.5163 70.5116 48.1705 70.7154 46.8279 70.7799C49.9549 69.2957 53.654 66.9258 56.0314 63.3598C56.457 62.7216 56.2845 61.8592 55.6463 61.4338C55.0083 61.0083 54.1457 61.1806 53.7203 61.819C50.0711 67.2928 42.3928 69.6432 40.7483 70.0936C39.1639 69.6498 37.6256 69.001 36.1676 68.1485C34.5258 67.1886 33.0612 66.0118 31.7958 64.6622C32.3797 64.6848 33.0245 64.6996 33.7215 64.6996C37.2023 64.6996 41.9296 64.3361 46.2689 62.7861C46.9913 62.5281 47.3678 61.7333 47.1098 61.011C46.8516 60.2886 46.0564 59.912 45.3346 60.1701C39.0917 62.3996 31.6887 61.9288 29.5318 61.7276C28.7964 60.5522 28.1853 59.2928 27.7122 57.9648C29.3423 58.3376 30.9959 58.6129 32.6522 58.7863C33.4155 58.8655 34.0986 58.3125 34.1782 57.5496C34.2581 56.7866 33.7043 56.1035 32.9415 56.0236C30.6311 55.7815 28.3265 55.3277 26.0915 54.6739C25.6189 54.5358 25.1084 54.658 24.7501 54.9952C24.3914 55.3325 24.238 55.8343 24.347 56.3143C24.4115 56.5976 24.4678 56.831 24.5247 57.0477C26.0239 62.7677 29.6604 67.5617 34.7653 70.5462C38.2013 72.5552 42.0245 73.5826 45.9021 73.5825C47.7853 73.5825 49.6817 73.3401 51.5516 72.8499C57.2717 71.3509 62.0656 67.7141 65.0504 62.6093C68.0348 57.5044 68.853 51.543 67.3538 45.8225Z" fill="black"/>
<path d="M57.3202 52.1498C56.9573 51.4743 56.1153 51.2202 55.4394 51.5834C52.7386 53.034 49.8508 54.1674 46.8565 54.9522C43.7512 55.766 40.5647 56.1963 37.3855 56.2314C36.6184 56.2397 36.0035 56.8685 36.0118 57.6355C36.0203 58.3974 36.6406 59.0091 37.4004 59.0091C37.4058 59.0091 37.4108 59.0091 37.4159 59.0091C40.8226 58.9717 44.2355 58.5108 47.5607 57.6394C50.7669 56.7989 53.86 55.5848 56.7539 54.0307C57.4294 53.6677 57.6833 52.8256 57.3202 52.1498Z" fill="black"/>
<path d="M95.8518 34.778C94.9201 31.2371 91.2419 29.7968 89.3227 29.2769C89.2434 29.1559 89.1426 29.0476 89.0255 28.9544C89.2946 28.455 89.502 27.9783 89.6486 27.5086C90.3672 25.2282 90.5043 22.8931 90.0346 20.9337C89.5048 18.7223 88.2715 17.208 86.5626 16.6703C85.1125 16.2122 83.5159 16.5419 82.0326 17.5739C81.0241 16.5496 79.8232 16 78.549 16C77.2765 16 76.0759 16.5495 75.0671 17.5737C73.5844 16.5413 71.9885 16.2112 70.5391 16.6698C67.9012 17.5003 66.4261 20.7563 66.8686 24.772C66.9527 25.5344 67.636 26.0844 68.4013 26.0005C69.1637 25.9164 69.7138 25.2302 69.6298 24.4678C69.3461 21.892 70.0793 19.7267 71.3753 19.3187C72.183 19.0632 73.2695 19.516 74.2794 20.5315C74.5762 20.8299 74.9908 20.9783 75.4108 20.9331C75.8296 20.8887 76.2053 20.6566 76.4328 20.3025C76.7985 19.733 77.5596 18.7779 78.5493 18.7779C79.5408 18.7779 80.3006 19.7324 80.6654 20.3014C80.8927 20.6559 81.2682 20.8882 81.6869 20.9331C82.1039 20.9777 82.5218 20.8305 82.8189 20.5323C83.8454 19.5017 84.9051 19.0598 85.7272 19.3195C86.4587 19.5498 87.0442 20.3741 87.3333 21.5812C87.6394 22.8579 87.583 24.443 87.185 26.0179C83.9705 22.1898 78.4206 20.9344 73.7867 23.3072C72.7365 23.8449 71.6558 24.4817 70.8665 25.4892C67.9368 29.2291 61.1047 34.8515 51.4938 38.3888C44.5318 40.951 34.0275 43.1271 22.8244 39.4214C23.932 37.4466 26.0723 33.8677 28.084 31.856C28.6264 31.3137 28.6264 30.4342 28.084 29.892C27.5414 29.3496 26.6622 29.3496 26.1196 29.892C24.2188 31.7928 22.3006 34.7907 21.0388 36.9452C20.4699 35.2551 19.8796 32.9911 19.8796 30.8739C19.8796 30.1069 19.2579 29.4849 18.4906 29.4849C17.7232 29.4849 17.1016 30.1067 17.1016 30.8739C17.1016 34.7413 18.7015 38.8057 19.328 40.2492C16.323 48.6894 16.7099 57.8012 20.4369 65.9732C24.2443 74.321 31.0767 80.6822 39.6757 83.8848C43.1214 85.1683 46.7348 85.889 50.3645 86.0349L52.4153 92.2232H51.6625C50.8953 92.2232 50.2735 92.845 50.2735 93.6122C50.2735 94.3793 50.8952 95.0012 51.6625 95.0012H54.329C54.3325 95.0012 54.3357 95.002 54.3391 95.002H59.4116C60.1789 95.002 60.8006 94.3802 60.8006 93.613C60.8006 92.846 60.1789 92.224 59.4116 92.224H55.3421L53.2885 86.0274C54.5985 85.968 55.9059 85.8343 57.2023 85.6226C62.8797 84.6965 68.2749 82.3312 72.8044 78.7823C73.4083 78.309 73.5142 77.4362 73.0413 76.8324C72.5679 76.2285 71.6948 76.1226 71.0914 76.5957C62.4103 83.3971 51.0286 85.1487 40.6453 81.2815C32.7427 78.3382 26.4636 72.4924 22.9645 64.8206C19.6555 57.5651 19.2098 49.5029 21.6733 41.9701C26.2628 43.5253 30.8437 44.1917 35.2926 44.1913C52.3741 44.1903 67.4502 34.3548 73.0534 27.2025C73.5116 26.6177 74.2852 26.1732 75.0529 25.78C79.0732 23.7212 84.0189 25.3174 86.0778 29.3377C87.0571 31.2503 87.2113 33.4223 86.5124 35.4539C85.8135 37.4857 84.3555 39.1031 82.4067 40.0082L79.6717 41.2784C79.2963 41.4529 79.0181 41.7854 78.9131 42.186C78.8084 42.5864 78.8872 43.0127 79.1289 43.3488C82.7004 48.3166 83.698 54.3995 81.9373 60.4767C81.7137 61.2487 81.4566 62.0239 81.1738 62.7804C79.6604 66.8279 77.4024 70.4461 74.4622 73.5347C73.9333 74.0903 73.955 74.9695 74.5105 75.4985C75.0658 76.0274 75.9452 76.0056 76.4741 75.4502C79.6742 72.0889 82.1306 68.1535 83.7759 63.7536C84.0833 62.9315 84.3626 62.0893 84.6057 61.2499C86.4479 54.8901 85.6278 48.5141 82.3093 43.1161L83.5767 42.5276C85.3552 41.7016 86.8301 40.4362 87.8942 38.8579C88.34 38.9131 88.768 38.942 89.1736 38.942C93.5033 38.9417 95.5532 36.0632 95.6509 35.9223C95.8815 35.5884 95.9548 35.1706 95.8518 34.778ZM89.2025 36.1567C89.6091 34.897 89.7753 33.601 89.7048 32.3191C90.8793 32.7703 92.2651 33.5466 92.9116 34.8195C92.3083 35.3571 91.1009 36.1405 89.2025 36.1567Z" fill="black"/>
<path d="M79.1976 32.2322C79.9647 32.2322 80.5866 31.6104 80.5866 30.8432C80.5866 30.0761 79.9647 29.4542 79.1976 29.4542C78.4305 29.4542 77.8086 30.0761 77.8086 30.8432C77.8086 31.6104 78.4305 32.2322 79.1976 32.2322Z" fill="black"/>
</g>
</g>
<defs>
<filter id="filter0_i_2546:27756" x="107" y="0" width="84.0703" height="122.286" filterUnits="userSpaceOnUse" color-interpolation-filters="sRGB">
<feFlood flood-opacity="0" result="BackgroundImageFix"/>
<feBlend mode="normal" in="SourceGraphic" in2="BackgroundImageFix" result="shape"/>
<feColorMatrix in="SourceAlpha" type="matrix" values="0 0 0 0 0 0 0 0 0 0 0 0 0 0 0 0 0 0 127 0" result="hardAlpha"/>
<feOffset dy="15.2857"/>
<feGaussianBlur stdDeviation="15.2857"/>
<feComposite in2="hardAlpha" operator="arithmetic" k2="-1" k3="1"/>
<feColorMatrix type="matrix" values="0 0 0 0 0.470833 0 0 0 0 0.360874 0 0 0 0 0.284462 0 0 0 0.06 0"/>
<feBlend mode="normal" in2="shape" result="effect1_innerShadow_2546:27756"/>
</filter>
<clipPath id="clip0_2546:27756">
<rect width="191" height="107" rx="19.11" fill="white"/>
</clipPath>
<clipPath id="clip1_2546:27756">
<rect width="79.002" height="79.002" fill="white" transform="translate(17 16)"/>
</clipPath>
</defs>
</svg>
