<svg width="191" height="107" viewBox="0 0 191 107" fill="none" xmlns="http://www.w3.org/2000/svg">
<g clip-path="url(#clip0_2548:28008)">
<rect width="191" height="107" rx="19.11" fill="#FFB9B9"/>
<g filter="url(#filter0_i_2548:28008)">
<path d="M107 0H171.964C182.517 0 191.071 8.55456 191.071 19.1071V87.8929C191.071 98.4454 182.517 107 171.964 107H107V0Z" fill="#FA8B8A"/>
<path d="M131.84 39.1162L160.501 71.689" stroke="white" stroke-width="3.82143" stroke-linecap="round" stroke-linejoin="round"/>
<path d="M132.602 72.6071L159.746 38.2142" stroke="white" stroke-width="3.82143" stroke-linecap="round" stroke-linejoin="round"/>
</g>
<path d="M77.124 57.4055C87.0882 56.7684 95 48.4606 95 38.3384H92.5371C92.5371 47.1198 85.7012 54.334 77.0717 54.9409C76.8303 52.4388 75.7476 50.1806 74.1119 48.4491C76.1293 46.0026 76.7964 43.3856 77.0159 41.921C82.1833 41.3593 86.219 36.971 86.219 31.6567C86.219 25.9628 81.5866 21.3303 75.8927 21.3303H74.6611V30.4251H65.5661V31.6567C65.5661 36.8873 69.4762 41.219 74.5264 41.89C74.3079 43.082 73.7338 45.0247 72.234 46.8556C70.481 45.6782 68.3734 44.99 66.1077 44.99H60.751V42.3295C62.3299 41.8104 63.4736 40.3229 63.4736 38.5726C63.4736 36.3922 61.6998 34.6183 59.5194 34.6183C57.3391 34.6183 55.5651 36.3921 55.5651 38.5726C55.5651 40.3231 56.7088 41.8106 58.2879 42.3295V44.9902H48.7124V42.3295C50.2915 41.8106 51.4352 40.3231 51.4352 38.5726C51.4352 36.3922 49.6614 34.6183 47.4809 34.6183C45.3007 34.6183 43.5267 36.3921 43.5267 38.5726C43.5267 40.3229 44.6704 41.8104 46.2493 42.3295V44.9902H40.8928C38.6274 44.9902 36.52 45.678 34.7673 46.8549C33.282 45.0357 32.7041 43.0864 32.4804 41.8892C37.5274 41.2153 41.434 36.885 41.434 31.6567V30.4251H32.3391V21.3305H31.1075C25.4136 21.3305 20.7811 25.9629 20.7811 31.6569C20.7811 36.9714 24.817 41.3596 29.9846 41.9211C30.2041 43.3856 30.8712 46.0026 32.8884 48.4489C31.2528 50.1804 30.1697 52.4386 29.9286 54.9409C21.2989 54.334 14.4631 47.12 14.4631 38.3384H12C12 48.4606 19.9121 56.7684 29.876 57.4055V59.541H13.2315V62.0039H29.876V64.4101C22.7479 65.036 17.1374 71.0348 17.1374 78.3228H19.6003C19.6003 72.3883 24.1164 67.4895 29.8918 66.8803C30.2915 77.3086 38.8985 85.6696 49.4226 85.6696H57.5769C68.1014 85.6696 76.7082 77.3086 77.1077 66.8803C82.8833 67.4895 87.3992 72.3883 87.3992 78.3228H89.8621C89.8621 71.035 84.2517 65.036 77.1236 64.4101V62.0039H93.768V59.541H77.124V57.4055ZM68.1253 32.8884H77.124V23.8899C80.8769 24.4829 83.7559 27.74 83.7559 31.6569C83.7559 35.9928 80.2286 39.5205 75.8925 39.5205C71.9754 39.5205 68.7182 36.6414 68.1253 32.8884ZM23.2442 31.6569C23.2442 27.74 26.1231 24.4827 29.8761 23.8899V32.8884H38.8748C38.282 36.6414 35.0249 39.5205 31.1077 39.5205C26.7716 39.5205 23.2442 35.9928 23.2442 31.6569ZM58.028 38.5728C58.028 37.7504 58.6972 37.0815 59.5193 37.0815C60.3415 37.0815 61.0104 37.7505 61.0104 38.5728C61.0104 39.395 60.3413 40.064 59.5193 40.064C58.6969 40.0642 58.028 39.3951 58.028 38.5728ZM45.9896 38.5728C45.9896 37.7504 46.6587 37.0815 47.4807 37.0815C48.3031 37.0815 48.972 37.7505 48.972 38.5728C48.972 39.395 48.3029 40.064 47.4807 40.064C46.6587 40.0642 45.9896 39.3951 45.9896 38.5728ZM74.6611 66.1229H74.6609C74.6609 75.5431 66.9971 83.2068 57.577 83.2068H49.423C40.0029 83.2068 32.3391 75.5431 32.3391 66.1229V56.0067C32.3391 51.2904 36.176 47.4533 40.8926 47.4533H66.1077C70.8241 47.4533 74.6613 51.2902 74.6613 56.0067V66.1229H74.6611Z" fill="black"/>
<path d="M58.4731 78.248C58.1771 78.2698 57.8752 78.2808 57.5761 78.2808H49.4219V80.7437H57.5761C57.935 80.7437 58.2975 80.7304 58.6532 80.7045L58.4731 78.248Z" fill="black"/>
<path d="M69.7359 66.1228C69.7357 71.3719 66.3852 76.0108 61.3984 77.6661L62.1743 80.0037C68.1704 78.0137 72.199 72.4353 72.199 66.123H69.7359V66.1228Z" fill="black"/>
</g>
<defs>
<filter id="filter0_i_2548:28008" x="107" y="0" width="84.0703" height="122.286" filterUnits="userSpaceOnUse" color-interpolation-filters="sRGB">
<feFlood flood-opacity="0" result="BackgroundImageFix"/>
<feBlend mode="normal" in="SourceGraphic" in2="BackgroundImageFix" result="shape"/>
<feColorMatrix in="SourceAlpha" type="matrix" values="0 0 0 0 0 0 0 0 0 0 0 0 0 0 0 0 0 0 127 0" result="hardAlpha"/>
<feOffset dy="15.2857"/>
<feGaussianBlur stdDeviation="15.2857"/>
<feComposite in2="hardAlpha" operator="arithmetic" k2="-1" k3="1"/>
<feColorMatrix type="matrix" values="0 0 0 0 0.470833 0 0 0 0 0.360874 0 0 0 0 0.284462 0 0 0 0.06 0"/>
<feBlend mode="normal" in2="shape" result="effect1_innerShadow_2548:28008"/>
</filter>
<clipPath id="clip0_2548:28008">
<rect width="191" height="107" rx="19.11" fill="white"/>
</clipPath>
</defs>
</svg>
