<svg width="191" height="107" viewBox="0 0 191 107" fill="none" xmlns="http://www.w3.org/2000/svg">
<g clip-path="url(#clip0_2547:27878)">
<rect width="191" height="107" rx="19.11" fill="#FFB9B9"/>
<g filter="url(#filter0_i_2547:27878)">
<path d="M107 0H171.964C182.517 0 191.071 8.55456 191.071 19.1071V87.8929C191.071 98.4454 182.517 107 171.964 107H107V0Z" fill="#FA8B8A"/>
<path d="M131.84 39.1162L160.501 71.689" stroke="white" stroke-width="3.82143" stroke-linecap="round" stroke-linejoin="round"/>
<path d="M132.602 72.6071L159.746 38.2142" stroke="white" stroke-width="3.82143" stroke-linecap="round" stroke-linejoin="round"/>
</g>
<g clip-path="url(#clip1_2547:27878)">
<path d="M62.7746 83.994H62.188C41.3837 83.994 36.7046 83.0102 28.8104 76.9761C20.3969 70.5445 15.9524 59.5788 17.2106 48.3578C17.2123 48.3418 17.2148 48.3259 17.2175 48.3102L17.7757 45.0018C17.9499 43.9687 18.5923 43.1188 19.5369 42.6699C20.4764 42.2241 21.5785 42.2651 22.4853 42.7806C25.4021 44.437 30.5491 46.5549 38.5061 47.2369C44.4753 47.7486 46.017 48.0997 50.0189 49.3794C50.6749 49.5889 51.3788 49.4006 51.7715 48.9104C52.2408 48.3248 52.1603 47.4728 51.5328 46.3797C50.2402 44.1297 49.5575 41.5612 49.5575 38.9525C49.5575 34.8808 51.1654 31.0749 54.0853 28.2358C57.0038 25.3978 60.8503 23.8985 64.9324 24.0123C72.6104 24.2273 78.9436 30.3579 79.4206 38.0016C79.7793 38.0717 80.1702 38.1293 80.5962 38.1698C84.4469 38.5365 87.7297 37.1045 87.7619 37.0899C88.0124 36.9793 88.3 36.9924 88.5376 37.126C88.7763 37.2596 88.9376 37.4979 88.9737 37.7688C88.9865 37.867 89.272 40.1916 87.6353 42.2651C87.0903 42.9554 86.1533 43.8362 84.6248 44.488C84.782 44.752 84.9613 45.0785 85.1504 45.4674C85.2444 45.6616 85.3315 45.8788 85.4095 46.1126C85.6437 46.8147 85.4567 47.5724 84.9221 48.0886C84.3799 48.6121 83.6056 48.7751 82.8997 48.5118C82.4938 48.3606 82.0536 48.2277 81.5905 48.1174C80.8162 47.9321 79.4573 47.8027 78.0187 47.666C77.5667 47.623 77.1372 47.5814 76.73 47.5394C75.9248 48.6853 74.9729 49.7055 73.894 50.5769C73.2682 51.0827 72.9129 51.8085 72.8925 52.6209C72.8713 53.4778 73.2318 54.302 73.8812 54.8824C77.4206 58.0437 79.4507 62.5768 79.4507 67.319C79.4497 76.5137 71.9694 83.994 62.7746 83.994ZM18.9316 48.5746C17.7497 59.1858 21.9372 69.5385 29.864 75.5975C37.4383 81.3874 41.6678 82.2592 62.188 82.2592H62.7746C71.0129 82.2592 77.7152 75.5569 77.7152 67.3186C77.7152 63.0701 75.8963 59.0085 72.7249 56.1756C71.695 55.256 71.124 53.9444 71.1576 52.5779C71.1902 51.2673 71.7897 50.0465 72.8026 49.2278C73.5103 48.6558 74.1566 48.0112 74.7342 47.3018C74.6135 47.2844 74.4966 47.2664 74.3838 47.2487C74.1067 47.2047 73.8472 47.1578 73.6061 47.1075C72.7721 46.9344 72.2191 46.7343 71.8431 46.48C71.7619 46.4259 71.6884 46.3686 71.6225 46.3086C70.6535 45.424 70.4884 44.2469 70.4926 43.5299C70.1838 43.2603 69.9452 42.8881 69.8078 42.4517C69.5705 41.6975 69.6666 40.8712 70.0638 40.2412C70.4905 39.5637 71.0993 39.1412 71.8237 39.0198C73.0351 38.8161 73.1877 38.498 73.4642 37.9204C73.5846 37.6689 73.7209 37.3837 73.9391 37.092C73.9394 37.092 73.9394 37.092 73.9394 37.092C74.3106 36.5959 74.7602 36.3479 75.2428 36.3618C75.2514 36.3618 75.2601 36.3618 75.2684 36.3618C75.6747 36.3618 76.1211 36.5324 76.6061 36.8738C76.8382 37.0372 77.1733 37.2394 77.6281 37.4375C76.8902 30.9986 71.4414 25.93 64.8817 25.7461C61.2736 25.6476 57.8725 26.971 55.2926 29.4795C52.7119 31.989 51.2903 35.3533 51.2903 38.9525C51.2903 41.2587 51.8936 43.5282 53.0352 45.5159C54.3035 47.7254 53.7832 49.1713 53.1233 49.9952C52.2842 51.0425 50.8241 51.4591 49.4885 51.0317C45.5785 49.7801 44.1891 49.4644 38.3576 48.9645C30.0884 48.2558 24.6961 46.0304 21.6288 44.2882C21.207 44.0489 20.7164 44.0298 20.2811 44.2362C19.8547 44.4388 19.5647 44.8228 19.4856 45.2901L18.9316 48.5746ZM75.2875 45.6266C76.2703 45.7574 77.353 45.8604 78.1821 45.9391C79.6828 46.0817 81.1003 46.2167 81.9929 46.4304C82.5236 46.557 83.0325 46.7107 83.504 46.8865C83.6081 46.924 83.6816 46.8744 83.716 46.8411C83.7968 46.7627 83.7711 46.6857 83.7628 46.6604C83.7087 46.4973 83.65 46.3509 83.589 46.2247C83.326 45.6831 83.086 45.287 82.9229 45.0403C81.3587 45.4091 79.3664 45.5388 76.8413 45.2086C75.0558 44.9754 73.5509 44.6788 72.3458 44.324C72.429 44.5713 72.5678 44.8214 72.794 45.0278C72.9081 45.1277 73.3761 45.3661 75.2875 45.6266ZM71.8882 42.34C72.7652 42.6817 74.3429 43.133 77.0668 43.4886C82.8952 44.2501 85.3377 42.3754 86.2737 41.19C86.828 40.4882 87.0771 39.7372 87.1861 39.1394C85.7457 39.589 83.24 40.1645 80.4311 39.8967C77.9497 39.6601 76.4108 38.8935 75.5567 38.292C75.4738 38.2337 75.4096 38.1917 75.3604 38.1615C75.2549 38.3093 75.1748 38.4775 75.0822 38.6701C74.6346 39.6046 74.1063 40.4046 72.1647 40.7307C72.0804 40.7449 71.8233 40.7883 71.5846 41.1668C71.4594 41.3655 71.4324 41.666 71.516 41.9324C71.5742 42.1173 71.6686 42.229 71.7369 42.2578C71.7904 42.28 71.8414 42.3081 71.8882 42.34ZM53.7839 78.3103C47.9985 78.3103 41.689 76.1051 38.1731 73.7843C31.9878 69.7015 28.3803 62.216 28.2301 61.8993C28.0244 61.4667 28.2082 60.9498 28.6408 60.7441C29.0737 60.5376 29.5906 60.7222 29.7967 61.1544C29.8317 61.2276 33.3542 68.5252 39.1285 72.3366C44.5392 75.9077 57.7996 79.4135 62.8058 73.097C67.5456 67.1157 62.0815 58.8826 62.0257 58.8003C61.7575 58.4035 61.8616 57.8644 62.2584 57.5959C62.6549 57.3277 63.1937 57.4314 63.4629 57.8287C63.7196 58.2085 69.6857 67.208 64.165 74.1742C61.7793 77.185 57.9145 78.3103 53.7839 78.3103ZM66.958 38.0883C65.2602 38.0883 63.8792 36.7073 63.8792 35.0095C63.8792 33.3118 65.2602 31.9307 66.958 31.9307C68.6557 31.9307 70.0367 33.3118 70.0367 35.0095C70.0367 36.7073 68.6554 38.0883 66.958 38.0883ZM66.958 33.6653C66.2166 33.6653 65.6137 34.2682 65.6137 35.0095C65.6137 35.7509 66.2166 36.3538 66.958 36.3538C67.6993 36.3538 68.3022 35.7509 68.3022 35.0095C68.3022 34.2682 67.6989 33.6653 66.958 33.6653Z" fill="black"/>
</g>
</g>
<defs>
<filter id="filter0_i_2547:27878" x="107" y="0" width="84.0703" height="122.286" filterUnits="userSpaceOnUse" color-interpolation-filters="sRGB">
<feFlood flood-opacity="0" result="BackgroundImageFix"/>
<feBlend mode="normal" in="SourceGraphic" in2="BackgroundImageFix" result="shape"/>
<feColorMatrix in="SourceAlpha" type="matrix" values="0 0 0 0 0 0 0 0 0 0 0 0 0 0 0 0 0 0 127 0" result="hardAlpha"/>
<feOffset dy="15.2857"/>
<feGaussianBlur stdDeviation="15.2857"/>
<feComposite in2="hardAlpha" operator="arithmetic" k2="-1" k3="1"/>
<feColorMatrix type="matrix" values="0 0 0 0 0.470833 0 0 0 0 0.360874 0 0 0 0 0.284462 0 0 0 0.06 0"/>
<feBlend mode="normal" in2="shape" result="effect1_innerShadow_2547:27878"/>
</filter>
<clipPath id="clip0_2547:27878">
<rect width="191" height="107" rx="19.11" fill="white"/>
</clipPath>
<clipPath id="clip1_2547:27878">
<rect width="72" height="72" fill="white" transform="translate(17 18)"/>
</clipPath>
</defs>
</svg>
