<svg width="50" height="28" viewBox="0 0 50 28" fill="none" xmlns="http://www.w3.org/2000/svg">
<rect width="50" height="28" rx="5" fill="#FFE6C1"/>
<path d="M14.0058 17.5055C15.9442 17.5055 17.5156 15.9354 17.5156 13.9985C17.5156 12.0617 15.9442 10.4916 14.0058 10.4916C12.0675 10.4916 10.4961 12.0617 10.4961 13.9985C10.4961 15.9354 12.0675 17.5055 14.0058 17.5055Z" fill="#FFB03A"/>
<rect x="7.4" y="7.4" width="13.239" height="13.2279" rx="0.6" stroke="#FFB03A" stroke-width="0.8"/>
<g filter="url(#filter0_i)">
<path d="M28 0H45C47.7614 0 50 2.23858 50 5V23C50 25.7614 47.7614 28 45 28H28V0Z" fill="#FFB951" fill-opacity="0.68"/>
<path d="M34.5 10.2361L42 18.7598" stroke="white" stroke-linecap="round" stroke-linejoin="round"/>
<path d="M34.6992 19L41.8023 10" stroke="white" stroke-linecap="round" stroke-linejoin="round"/>
</g>
<defs>
<filter id="filter0_i" x="28" y="0" width="22" height="32" filterUnits="userSpaceOnUse" color-interpolation-filters="sRGB">
<feFlood flood-opacity="0" result="BackgroundImageFix"/>
<feBlend mode="normal" in="SourceGraphic" in2="BackgroundImageFix" result="shape"/>
<feColorMatrix in="SourceAlpha" type="matrix" values="0 0 0 0 0 0 0 0 0 0 0 0 0 0 0 0 0 0 127 0" result="hardAlpha"/>
<feOffset dy="4"/>
<feGaussianBlur stdDeviation="4"/>
<feComposite in2="hardAlpha" operator="arithmetic" k2="-1" k3="1"/>
<feColorMatrix type="matrix" values="0 0 0 0 0.470833 0 0 0 0 0.360874 0 0 0 0 0.284462 0 0 0 0.06 0"/>
<feBlend mode="normal" in2="shape" result="effect1_innerShadow"/>
</filter>
</defs>
</svg>
