<svg width="191" height="107" viewBox="0 0 191 107" fill="none" xmlns="http://www.w3.org/2000/svg">
<g clip-path="url(#clip0_2548:28144)">
<rect width="191" height="107" rx="19.11" fill="#FFB9B9"/>
<g filter="url(#filter0_i_2548:28144)">
<path d="M107 0H171.964C182.517 0 191.071 8.55456 191.071 19.1071V87.8929C191.071 98.4454 182.517 107 171.964 107H107V0Z" fill="#FA8B8A"/>
<path d="M131.84 39.1162L160.501 71.689" stroke="white" stroke-width="3.82143" stroke-linecap="round" stroke-linejoin="round"/>
<path d="M132.602 72.6071L159.746 38.2142" stroke="white" stroke-width="3.82143" stroke-linecap="round" stroke-linejoin="round"/>
</g>
<path d="M49.0144 74.5215C48.3476 78.2451 45.8519 80.6512 42.6563 80.6512C41.8709 80.6512 41.2342 80.0145 41.2342 79.229C41.2342 78.4436 41.8709 77.8069 42.6563 77.8069C44.78 77.8069 45.8869 75.8508 46.2146 74.0201C46.3531 73.247 47.0916 72.731 47.8653 72.871C48.6381 73.0095 49.1528 73.7484 49.0144 74.5215ZM78.4184 44.2628C78.5958 44.8891 79.1659 45.2979 79.7859 45.2979C79.9143 45.2979 80.0445 45.2804 80.174 45.2437C80.9299 45.0297 81.369 44.2437 81.1551 43.4879C79.7591 38.5567 77.415 33.8398 74.5546 30.2061C74.0688 29.5891 73.1749 29.4823 72.5575 29.9684C71.9405 30.4542 71.8338 31.3483 72.3198 31.9655C74.9554 35.3139 77.1214 39.6812 78.4184 44.2628ZM38.5164 30.0509C37.9447 30.5893 37.9177 31.4895 38.4561 32.0612C40.3354 34.0569 42.0513 36.7139 43.4184 39.7454C43.6557 40.2716 44.1736 40.5832 44.7156 40.5832C44.9111 40.5832 45.1098 40.5426 45.2995 40.4571C46.0155 40.1342 46.334 39.2921 46.0112 38.576C44.5161 35.2607 42.6196 32.3335 40.5267 30.111C39.9882 29.5393 39.0881 29.5121 38.5164 30.0509ZM95 58.3143V65.4509C95 66.2364 94.3633 66.8731 93.5778 66.8731H90.1128L88.2872 77.0661C87.2443 82.8864 83.3939 86.6475 78.4775 86.6475H62.2584C58.7493 86.6475 55.7939 84.757 54.0001 81.5293C52.2063 84.757 49.2511 86.6475 45.7424 86.6475H29.5233C24.6065 86.6475 20.7559 82.8866 19.7134 77.0661L17.8876 66.8731H14.4222C13.6367 66.8731 13 66.2364 13 65.4509V58.3143C13 57.5289 13.6367 56.8922 14.4222 56.8922H19.5505C18.7006 52.6881 18.8471 47.8499 19.9893 42.7721C21.2146 37.3261 23.4815 32.1809 26.3726 28.2846C29.6913 23.8119 33.4718 21.4143 37.3053 21.3513C37.321 21.3511 37.3364 21.3511 37.3521 21.3513C42.9562 21.4436 48.5177 26.6381 52.2293 35.2469C52.5401 35.9681 52.2076 36.805 51.4863 37.116C50.7651 37.4269 49.9285 37.0945 49.6172 36.373C46.4157 28.9469 41.709 24.2843 37.3285 24.1957C34.4602 24.2536 31.3816 26.3066 28.6566 29.9794C23.1687 37.3761 20.5984 48.7265 22.461 56.8922H52.8933C52.0436 52.6881 52.1901 47.8497 53.3325 42.7719C54.558 37.3257 56.8249 32.1805 59.7158 28.2844C63.0345 23.8119 66.815 21.4145 70.6483 21.3516C70.6638 21.3513 70.6796 21.3513 70.6951 21.3516C74.5286 21.4145 78.3091 23.8119 81.6278 28.2846C84.5187 32.1809 86.7858 37.3259 88.0109 42.7721C89.1533 47.8499 89.2998 52.6881 88.4499 56.8922H93.5778C94.3635 56.8922 95 57.5291 95 58.3143ZM55.804 56.8922H85.5394C87.402 48.7263 84.8317 37.3759 79.3436 29.9794C76.6184 26.3068 73.5398 24.2538 70.6717 24.1959C67.8036 24.2538 64.725 26.3068 62 29.9792C56.5118 37.3757 53.9416 48.7263 55.804 56.8922ZM92.1557 59.7365H86.6761C86.6544 59.7369 86.6326 59.7369 86.6109 59.7365H54.7319C54.7108 59.7369 54.6894 59.7369 54.6673 59.7365H21.3895C21.3676 59.7369 21.3456 59.7369 21.3241 59.7365H15.8443V64.0288H30.0873C30.8727 64.0288 31.5094 64.6655 31.5094 65.4509C31.5094 66.2364 30.8727 66.8731 30.0873 66.8731H20.7772L22.5132 76.5647C23.1112 79.904 25.306 83.8031 29.5233 83.8031H45.7424C49.6731 83.8031 51.8701 80.4048 52.6155 77.2244C52.7663 76.5814 53.3398 76.1267 54.0001 76.1267C54.6604 76.1267 55.2341 76.5814 55.3847 77.2244C56.1301 80.4048 58.3269 83.8031 62.2584 83.8031H78.4775C82.6944 83.8031 84.8892 79.9038 85.4874 76.5647L87.2234 66.8731H77.9131C77.1277 66.8731 76.491 66.2364 76.491 65.4509C76.491 64.6655 77.1277 64.0288 77.9131 64.0288H92.1559V59.7365H92.1557ZM73.8779 79.229C73.8779 80.0145 74.5146 80.6512 75.3 80.6512C78.4952 80.6512 80.9911 78.2453 81.6583 74.5217C81.7969 73.7484 81.2822 73.0095 80.5092 72.871C79.7365 72.7312 78.9972 73.247 78.8585 74.0199C78.5306 75.8506 77.4235 77.8069 75.3 77.8069C74.5146 77.8069 73.8779 78.4436 73.8779 79.229Z" fill="black"/>
</g>
<defs>
<filter id="filter0_i_2548:28144" x="107" y="0" width="84.0703" height="122.286" filterUnits="userSpaceOnUse" color-interpolation-filters="sRGB">
<feFlood flood-opacity="0" result="BackgroundImageFix"/>
<feBlend mode="normal" in="SourceGraphic" in2="BackgroundImageFix" result="shape"/>
<feColorMatrix in="SourceAlpha" type="matrix" values="0 0 0 0 0 0 0 0 0 0 0 0 0 0 0 0 0 0 127 0" result="hardAlpha"/>
<feOffset dy="15.2857"/>
<feGaussianBlur stdDeviation="15.2857"/>
<feComposite in2="hardAlpha" operator="arithmetic" k2="-1" k3="1"/>
<feColorMatrix type="matrix" values="0 0 0 0 0.470833 0 0 0 0 0.360874 0 0 0 0 0.284462 0 0 0 0.06 0"/>
<feBlend mode="normal" in2="shape" result="effect1_innerShadow_2548:28144"/>
</filter>
<clipPath id="clip0_2548:28144">
<rect width="191" height="107" rx="19.11" fill="white"/>
</clipPath>
</defs>
</svg>
