<svg width="191" height="107" viewBox="0 0 191 107" fill="none" xmlns="http://www.w3.org/2000/svg">
<g clip-path="url(#clip0_2548:27977)">
<rect width="191" height="107" rx="19.11" fill="#FFB9B9"/>
<g filter="url(#filter0_i_2548:27977)">
<path d="M107 0H171.964C182.517 0 191.071 8.55456 191.071 19.1071V87.8929C191.071 98.4454 182.517 107 171.964 107H107V0Z" fill="#FA8B8A"/>
<path d="M131.84 39.1162L160.501 71.689" stroke="white" stroke-width="3.82143" stroke-linecap="round" stroke-linejoin="round"/>
<path d="M132.602 72.6071L159.746 38.2142" stroke="white" stroke-width="3.82143" stroke-linecap="round" stroke-linejoin="round"/>
</g>
<g clip-path="url(#clip1_2548:27977)">
<path d="M93.9606 53.1842C91.4915 46.9234 87.3631 41.4985 82.0214 37.4961C76.6481 33.4701 70.3087 31.0944 63.6701 30.616L49.9782 23.6934C49.9512 23.6796 49.9236 23.6668 49.8958 23.6548C49.2769 23.39 48.6443 23.2559 48.0154 23.2559C45.4758 23.2559 43.5604 25.3945 43.5604 28.2305C43.5604 30.0603 44.3971 31.6282 45.3661 33.4435C45.4881 33.6721 45.6117 33.9038 45.7362 34.1405C40.0147 36.991 35.0581 41.4554 31.5602 46.9091L22.2037 41.1727C22.1446 41.1365 22.0829 41.1047 22.0193 41.0773C21.5338 40.8695 21.0355 40.7642 20.5382 40.7642C18.521 40.7641 17 42.441 17 44.6647C17 47.2581 19.9031 51.6999 21.3162 53.708C19.9031 55.7159 17 60.1577 17 62.7511C17 64.9748 18.521 66.6517 20.5382 66.6517C21.0355 66.6517 21.534 66.5463 22.0196 66.3385C22.0831 66.3113 22.1448 66.2793 22.2039 66.2433L31.5595 60.5076C35.0477 65.9674 39.8439 70.3123 45.5541 73.1856C45.4597 73.3702 45.3663 73.5517 45.2739 73.7312C44.3546 75.5151 43.5608 77.0559 43.5608 78.8296C43.5608 81.6653 45.4758 83.8039 48.0156 83.8041C48.0157 83.8041 48.0159 83.8041 48.0161 83.8041C48.6446 83.8041 49.2772 83.6698 49.8961 83.405C49.9254 83.3925 49.9543 83.3789 49.9824 83.3645L62.7507 76.8581C76.5495 76.2283 88.7769 67.3764 93.9608 54.2311C94.0932 53.8947 94.0932 53.5205 93.9606 53.1842ZM74.48 71.1092C70.5357 67.0029 68.1928 60.4286 68.1928 53.4021C68.1928 50.1634 68.6737 47.0457 69.622 44.136C69.8662 43.3868 69.4567 42.5815 68.7074 42.3373C67.9585 42.0937 67.1528 42.5025 66.9087 43.2518C65.8673 46.4475 65.3392 49.8625 65.3392 53.4021C65.3392 60.6982 67.6806 67.6029 71.6654 72.2499C68.6986 73.2914 65.5591 73.9019 62.3284 74.0194C62.1209 74.0269 61.9174 74.0797 61.7325 74.174L48.7338 80.7979C48.4855 80.8993 48.2442 80.9506 48.0156 80.9506C48.0156 80.9506 48.0156 80.9506 48.0154 80.9506C47.0876 80.9506 46.4141 80.0587 46.4141 78.8298C46.4141 77.7479 46.9996 76.6114 47.8103 75.0383C48.1022 74.4717 48.4331 73.8294 48.7634 73.1319C48.9269 72.7861 48.945 72.3887 48.813 72.0295C48.681 71.6703 48.4103 71.3792 48.0616 71.2214C41.8689 68.4203 36.7514 63.7877 33.2624 57.8241C33.0687 57.493 32.75 57.2539 32.3779 57.1606C32.2633 57.1319 32.147 57.1178 32.0309 57.1178C31.7699 57.1178 31.5115 57.1895 31.285 57.3282L20.8172 63.7458C20.718 63.7806 20.6243 63.7981 20.538 63.7981C20.1349 63.7981 19.8535 63.3675 19.8535 62.7511C19.8535 61.1687 22.4075 57.007 24.2212 54.5571C24.5947 54.0527 24.5947 53.3632 24.2212 52.8588C22.4077 50.409 19.8537 46.247 19.8537 44.6647C19.8537 44.0481 20.1351 43.6177 20.5384 43.6177C20.6247 43.6177 20.7183 43.6352 20.8175 43.6698L31.285 50.0874C31.6119 50.288 32.0059 50.3481 32.3779 50.2549C32.75 50.1616 33.0687 49.9224 33.2624 49.5914C36.74 43.6475 42.0631 38.8594 48.2515 36.1088C48.6045 35.952 48.8786 35.659 49.0117 35.2964C49.1445 34.934 49.1251 34.5331 48.9573 34.1853C48.5881 33.4194 48.2139 32.7181 47.8836 32.0996C47.0305 30.5012 46.4141 29.3461 46.4141 28.2302C46.4141 27.0011 47.0874 26.1092 48.0154 26.1092C48.2446 26.1092 48.4869 26.1607 48.7357 26.2624L62.6408 33.2928C62.8131 33.38 63.0013 33.4312 63.1943 33.4435C65.9593 33.6192 68.6699 34.1546 71.2696 35.0264C70.5805 35.8786 69.9382 36.804 69.3523 37.795C68.9514 38.4733 69.1761 39.3483 69.8544 39.7494C70.0821 39.8842 70.3324 39.9483 70.579 39.9483C71.0668 39.9483 71.5423 39.6979 71.8088 39.2473C72.4905 38.0944 73.254 37.0459 74.083 36.1215C76.2716 37.0951 78.3601 38.3183 80.3101 39.7794C85.0791 43.3527 88.7991 48.1597 91.0945 53.7073C87.839 61.5763 81.8257 67.7174 74.48 71.1092Z" fill="black"/>
<path d="M78.3647 45.1536C76.0226 45.1536 74.1172 47.0591 74.1172 49.4013C74.1172 51.7434 76.0227 53.649 78.3647 53.649C80.7067 53.649 82.6122 51.7434 82.6122 49.4013C82.6122 47.0591 80.7067 45.1536 78.3647 45.1536ZM78.3647 50.7953C77.596 50.7953 76.9709 50.17 76.9709 49.4013C76.9709 48.6326 77.5962 48.0072 78.3647 48.0072C79.1332 48.0072 79.7586 48.6326 79.7586 49.4013C79.7586 50.17 79.1332 50.7953 78.3647 50.7953Z" fill="black"/>
</g>
</g>
<defs>
<filter id="filter0_i_2548:27977" x="107" y="0" width="84.0703" height="122.286" filterUnits="userSpaceOnUse" color-interpolation-filters="sRGB">
<feFlood flood-opacity="0" result="BackgroundImageFix"/>
<feBlend mode="normal" in="SourceGraphic" in2="BackgroundImageFix" result="shape"/>
<feColorMatrix in="SourceAlpha" type="matrix" values="0 0 0 0 0 0 0 0 0 0 0 0 0 0 0 0 0 0 127 0" result="hardAlpha"/>
<feOffset dy="15.2857"/>
<feGaussianBlur stdDeviation="15.2857"/>
<feComposite in2="hardAlpha" operator="arithmetic" k2="-1" k3="1"/>
<feColorMatrix type="matrix" values="0 0 0 0 0.470833 0 0 0 0 0.360874 0 0 0 0 0.284462 0 0 0 0.06 0"/>
<feBlend mode="normal" in2="shape" result="effect1_innerShadow_2548:27977"/>
</filter>
<clipPath id="clip0_2548:27977">
<rect width="191" height="107" rx="19.11" fill="white"/>
</clipPath>
<clipPath id="clip1_2548:27977">
<rect width="77.06" height="77.06" fill="white" transform="translate(17 15)"/>
</clipPath>
</defs>
</svg>
