<svg width="191" height="107" viewBox="0 0 191 107" fill="none" xmlns="http://www.w3.org/2000/svg">
<g clip-path="url(#clip0_2548:28116)">
<rect width="191" height="107" rx="19.11" fill="#FFB9B9"/>
<g filter="url(#filter0_i_2548:28116)">
<path d="M107 0H171.964C182.517 0 191.071 8.55456 191.071 19.1071V87.8929C191.071 98.4454 182.517 107 171.964 107H107V0Z" fill="#FA8B8A"/>
<path d="M131.84 39.1162L160.501 71.689" stroke="white" stroke-width="3.82143" stroke-linecap="round" stroke-linejoin="round"/>
<path d="M132.602 72.6071L159.746 38.2142" stroke="white" stroke-width="3.82143" stroke-linecap="round" stroke-linejoin="round"/>
</g>
<g clip-path="url(#clip1_2548:28116)">
<path d="M75.345 37.4673C80.2197 36.9249 84.0232 32.7813 84.0232 27.7645C84.0232 22.3802 79.6428 18 74.2587 18H73.1299V26.6359H64.4938V27.7647C64.4938 32.7492 68.2491 36.8709 73.0787 37.4556C72.5799 42.7638 68.3613 47.0065 63.063 47.5393V44.1565C63.063 41.5949 61.1945 39.4627 58.7489 39.0483V36.3778C60.2464 35.8989 61.3342 34.494 61.3342 32.8396C61.3342 30.7917 59.6681 29.1255 57.6202 29.1255C55.5723 29.1255 53.906 30.7916 53.906 32.8396C53.906 34.494 54.9938 35.8989 56.4914 36.3778V38.974H49.5005V36.3778C50.9982 35.8989 52.0858 34.494 52.0858 32.8396C52.0858 30.7917 50.4197 29.1255 48.3718 29.1255C46.324 29.1255 44.6579 30.7916 44.6579 32.8396C44.6579 34.494 45.7455 35.8987 47.243 36.3778V39.0483C44.7976 39.4627 42.929 41.5949 42.929 44.1565V47.5393C37.6306 47.0065 33.4119 42.7639 32.9133 37.4556C37.7428 36.8708 41.4981 32.7494 41.4981 27.7647V26.6359H32.8621V18H31.7333C26.3491 18 21.9688 22.3802 21.9688 27.7645C21.9688 32.7813 25.7723 36.9249 30.6467 37.4673C31.1628 44.0157 36.3886 49.2596 42.9287 49.8056V54.4216C37.0288 54.6896 31.5513 56.9353 31.3068 57.0367L32.1714 59.1218C32.2272 59.0988 37.462 56.9571 42.9285 56.6817V61.2177C32.9124 61.6308 28.7747 67.4533 28.5974 67.71L30.4522 68.9968C30.462 68.9829 31.4557 67.5908 33.6167 66.2206C36.763 64.2259 40.2505 63.6048 42.9285 63.478V68.0359C35.4519 68.614 29.5451 74.8826 29.5451 82.5052H31.8025C31.8025 76.1284 36.6985 70.876 42.9285 70.3039V79.1607C42.9285 80.2453 43.264 81.2525 43.8358 82.0857H43.3359C40.0504 82.0857 37.3775 84.7586 37.3775 88.0441C37.3775 91.3297 40.0504 94.0027 43.3359 94.0027C45.3207 94.0027 47.0822 93.027 48.1656 91.5298C49.2491 93.0268 51.0105 94.0027 52.9953 94.0027C54.9801 94.0027 56.7415 93.027 57.8249 91.5301C58.9082 93.0268 60.6696 94.0027 62.6545 94.0027C65.9399 94.0027 68.6129 91.3297 68.6129 88.0441C68.6129 84.7586 65.9399 82.0857 62.6545 82.0857H62.1547C62.7265 81.2527 63.0619 80.2453 63.0619 79.1607V70.3039C69.2921 70.8757 74.1886 76.1283 74.1886 82.5052H76.446C76.446 74.8826 70.5388 68.6137 63.0619 68.0359V63.4783C67.4702 63.6826 70.5348 65.0548 72.3742 66.2209C74.5352 67.5911 75.529 68.983 75.5359 68.993L77.3935 67.7103C77.2162 67.4536 73.0784 61.631 63.0621 61.2178V56.6819C68.5289 56.9572 73.7639 59.099 73.8193 59.122L74.6842 57.037C74.4399 56.9356 68.9621 54.6898 63.0619 54.4218V49.8059C69.6032 49.2598 74.829 44.0157 75.345 37.4673ZM66.8359 28.8933H75.3873V20.3421C78.9934 20.8881 81.7658 24.0085 81.7658 27.7645C81.7658 31.9042 78.3981 35.2719 74.2585 35.2719C70.5028 35.2719 67.3819 32.4994 66.8359 28.8933ZM24.2267 27.7645C24.2267 24.0085 26.9992 20.8881 30.6051 20.3421V28.8933H39.1566C38.6106 32.4994 35.4899 35.2719 31.7339 35.2719C27.5944 35.2719 24.2267 31.9042 24.2267 27.7645ZM56.1637 32.8396C56.1637 32.0364 56.8173 31.3828 57.6205 31.3828C58.4237 31.3828 59.0771 32.0364 59.0771 32.8396C59.0771 33.6429 58.4237 34.2963 57.6205 34.2963C56.8173 34.2963 56.1637 33.6429 56.1637 32.8396ZM46.9157 32.8396C46.9157 32.0364 47.569 31.3828 48.3722 31.3828C49.1754 31.3828 49.8289 32.0364 49.8289 32.8396C49.8289 33.6429 49.1754 34.2963 48.3722 34.2963C47.5691 34.2963 46.9157 33.6429 46.9157 32.8396ZM45.1868 44.1563C45.1868 42.5433 46.4989 41.2312 48.1117 41.2312H57.8804C59.4934 41.2312 60.8056 42.5433 60.8056 44.1563V47.5962H45.1868V44.1563ZM45.1868 49.8535H60.8056V56.2186H45.1868V49.8535ZM45.1868 67.0984H47.851V64.841H45.1868V58.4761H60.8056V64.841H50.8609V67.0984H60.8056V73.4635H45.1868V67.0984ZM45.1868 75.7208H60.8056V79.1607C60.8056 80.7737 59.4934 82.0857 57.8804 82.0857H48.1117C46.4989 82.0857 45.1868 80.7737 45.1868 79.1607V75.7208ZM62.6555 84.3432C64.6963 84.3432 66.3566 86.0034 66.3566 88.0442C66.3566 90.0852 64.6964 91.7455 62.6555 91.7455C60.6149 91.7455 58.9545 90.0853 58.9545 88.0442H56.6972C56.6972 90.0852 55.037 91.7455 52.9962 91.7455C50.9562 91.7455 49.2957 90.0857 49.2951 88.0454L47.0377 88.0455C47.0371 90.0856 45.3769 91.7455 43.3366 91.7455C41.296 91.7455 39.6356 90.0853 39.6356 88.0442C39.6356 86.0036 41.2958 84.3432 43.3366 84.3432H48.1115H57.8801H62.6555Z" fill="black"/>
</g>
</g>
<defs>
<filter id="filter0_i_2548:28116" x="107" y="0" width="84.0703" height="122.286" filterUnits="userSpaceOnUse" color-interpolation-filters="sRGB">
<feFlood flood-opacity="0" result="BackgroundImageFix"/>
<feBlend mode="normal" in="SourceGraphic" in2="BackgroundImageFix" result="shape"/>
<feColorMatrix in="SourceAlpha" type="matrix" values="0 0 0 0 0 0 0 0 0 0 0 0 0 0 0 0 0 0 127 0" result="hardAlpha"/>
<feOffset dy="15.2857"/>
<feGaussianBlur stdDeviation="15.2857"/>
<feComposite in2="hardAlpha" operator="arithmetic" k2="-1" k3="1"/>
<feColorMatrix type="matrix" values="0 0 0 0 0.470833 0 0 0 0 0.360874 0 0 0 0 0.284462 0 0 0 0.06 0"/>
<feBlend mode="normal" in2="shape" result="effect1_innerShadow_2548:28116"/>
</filter>
<clipPath id="clip0_2548:28116">
<rect width="191" height="107" rx="19.11" fill="white"/>
</clipPath>
<clipPath id="clip1_2548:28116">
<rect width="76.003" height="76.003" fill="white" transform="translate(15 18)"/>
</clipPath>
</defs>
</svg>
