<svg width="191" height="107" viewBox="0 0 191 107" fill="none" xmlns="http://www.w3.org/2000/svg">
<g clip-path="url(#clip0_2546:27762)">
<rect width="191" height="107" rx="19.11" fill="#FFB9B9"/>
<g filter="url(#filter0_i_2546:27762)">
<path d="M107 0H171.964C182.517 0 191.071 8.55456 191.071 19.1071V87.8929C191.071 98.4454 182.517 107 171.964 107H107V0Z" fill="#FA8B8A"/>
<path d="M131.84 39.1162L160.501 71.689" stroke="white" stroke-width="3.82143" stroke-linecap="round" stroke-linejoin="round"/>
<path d="M132.602 72.6071L159.746 38.2142" stroke="white" stroke-width="3.82143" stroke-linecap="round" stroke-linejoin="round"/>
</g>
<g clip-path="url(#clip1_2546:27762)">
<path d="M91.9224 34.4979L91.0658 32.5708L89.0555 33.2082C83.7512 34.8897 77.5632 36.8311 74.8637 37.6772C74.7691 37.5904 74.673 37.5049 74.5757 37.4199C74.9759 36.4336 75.1941 35.3618 75.1941 34.2513V34.1514C75.1682 30.9451 73.3216 28.0696 70.5393 26.6672C70.081 24.1162 68.4782 21.9081 66.1087 20.6805C64.2249 19.7038 62.0556 19.4837 60.0401 20.0191C58.5267 18.7215 56.6032 18.0023 54.5537 18.0023C54.551 18.0023 54.5481 18.0023 54.5456 18.0023C52.4912 18.004 50.564 18.7292 49.05 20.035C47.0316 19.5037 44.8602 19.7311 42.9763 20.7166C40.6034 21.9581 39.0082 24.1796 38.5655 26.7403C35.7793 28.1668 33.9521 31.0699 33.9629 34.293C33.9658 35.3525 34.1684 36.3757 34.5368 37.323C34.401 37.4393 34.2678 37.5574 34.1368 37.6772C31.4374 36.8313 25.2493 34.8899 19.9447 33.208L17.9344 32.5707L17.0778 34.4978C16.0485 36.8132 15.2334 40.2265 17.1949 43.3372C19.7511 47.3911 25.6642 48.6548 28.9582 49.0481C28.912 49.6614 28.8886 50.2899 28.8886 50.9343C28.8886 56.7711 30.2347 60.3547 31.9393 64.8914C32.5082 66.4058 33.0965 67.972 33.7061 69.8031C35.2849 74.5477 37.1933 79.4394 40.44 83.0765C43.4813 86.4837 47.3265 88.3778 52.1426 88.8321V88.9972H56.8577V88.8321C61.6738 88.3781 65.519 86.484 68.5603 83.0765C71.807 79.4393 73.7156 74.5475 75.2943 69.8031C75.9038 67.972 76.4921 66.4059 77.061 64.8914C78.7656 60.3547 80.1117 56.7711 80.1117 50.9343C80.1117 50.2899 80.0878 49.6616 80.0415 49.0483C83.3354 48.655 89.2489 47.3914 91.8052 43.3373C93.7668 40.2266 92.9518 36.8134 91.9224 34.4979ZM29.8463 44.397C27.1376 44.0929 22.6359 43.1326 21.181 40.8189C20.9991 40.5292 20.5502 39.8158 20.7648 38.4134C24.5274 39.6027 28.4212 40.8261 31.0237 41.6426C30.5533 42.5061 30.1615 43.425 29.8463 44.397ZM41.4232 30.6625L43.2112 30.1733L43.1575 28.3205C43.1156 26.8764 43.8839 25.5635 45.1624 24.8946C46.2372 24.3321 47.525 24.3288 48.6066 24.885L50.3716 25.7926L51.5668 24.2082C52.2808 23.2619 53.368 22.7184 54.5498 22.7174C54.551 22.7174 54.5523 22.7174 54.5534 22.7174C55.7338 22.7174 56.8201 23.2571 57.5344 24.1984L58.7329 25.778L60.4944 24.8681C61.5757 24.3097 62.8632 24.3091 63.9391 24.8668C65.2169 25.5288 65.9906 26.8355 65.9581 28.2772L65.9163 30.1315L67.7085 30.6085C69.3237 31.0384 70.4622 32.5069 70.4792 34.1815V34.2512C70.4792 35.9349 69.346 37.4184 67.7237 37.8592L65.9341 38.3451L65.9849 40.1988C66.0243 41.6411 65.2549 42.9499 63.9739 43.6163C62.8992 44.1774 61.6124 44.1801 60.5313 43.6232L58.7678 42.7153L57.5716 44.2973C56.8565 45.2428 55.7695 45.7851 54.5892 45.7851C53.4059 45.7851 52.3178 45.2443 51.6044 44.301L50.4071 42.718L48.6432 43.6282C47.5616 44.1864 46.2744 44.1858 45.1985 43.6256C43.9199 42.961 43.148 41.6529 43.184 40.2118L43.2302 38.3574L41.4389 37.8762C39.8179 37.4406 38.6828 35.962 38.6783 34.277C38.6724 32.5929 39.8014 31.1066 41.4232 30.6625ZM51.4241 76.1164C50.2041 74.8972 49.566 73.6175 49.566 72.9834C49.566 72.4174 49.663 72.3766 50.0236 72.2247C51.0517 71.7922 53.0708 71.7423 54.5 71.7423C55.9292 71.7423 57.9483 71.7922 58.9764 72.2247C59.337 72.3766 59.434 72.4174 59.434 72.9834C59.434 73.6173 58.7958 74.8972 57.5759 76.1164C56.3766 77.3153 55.096 77.962 54.5 77.962C53.904 77.962 52.6236 77.3152 51.4241 76.1164ZM72.6471 63.2333C72.0899 64.7166 71.4582 66.398 70.8204 68.3144C67.6941 77.709 64.4138 83.184 56.8575 84.0901V82.2065C58.7085 81.4921 60.2161 80.1439 60.9091 79.4515C61.8831 78.478 64.1491 75.8986 64.1491 72.9837C64.1491 70.5991 62.9613 68.7863 60.805 67.879C59.3674 67.274 57.5406 67.0275 54.5 67.0275C51.4594 67.0275 49.6326 67.2741 48.195 67.879C46.0384 68.7863 44.8509 70.5993 44.8509 72.9837C44.8509 75.8986 47.1169 78.478 48.0909 79.4515C48.7839 80.1442 50.2915 81.4921 52.1425 82.2065V84.0901C44.5865 83.184 41.3059 77.7092 38.1796 68.3144C37.5418 66.3978 36.9101 64.7164 36.3529 63.2333C34.7567 58.9846 33.6033 55.915 33.6033 50.9346C33.6033 46.6301 34.8525 43.3857 37.4096 41.078C37.7827 41.3531 38.1799 41.5993 38.5987 41.8115C39.0518 44.3649 40.6519 46.5767 43.0223 47.8086C44.906 48.7891 47.0761 49.0123 49.0938 48.4775C50.6077 49.7784 52.535 50.5001 54.589 50.5001C56.6422 50.5001 58.5693 49.7769 60.084 48.473C62.102 49.0062 64.2718 48.7803 66.153 47.7978C68.4858 46.5843 70.1044 44.331 70.5663 41.7907C70.946 41.5978 71.3071 41.3764 71.6494 41.1317C74.1669 43.4352 75.3967 46.6607 75.3967 50.9345C75.3967 55.9148 74.2433 58.9846 72.6471 63.2333ZM87.8193 40.8189C86.3639 43.1335 81.8597 44.0935 79.153 44.3973C78.8376 43.4253 78.4446 42.507 77.9741 41.6433C80.5767 40.8268 84.4719 39.6031 88.2357 38.4134C88.4501 39.8158 88.0014 40.5292 87.8193 40.8189Z" fill="black"/>
<path d="M46.6565 52.8578C44.9508 52.8578 43.5625 54.26 43.5625 55.9918C43.5625 57.7232 44.9506 59.1268 46.6565 59.1268C48.3645 59.1268 49.7524 57.7231 49.7524 55.9918C49.7523 54.26 48.3643 52.8578 46.6565 52.8578Z" fill="black"/>
<path d="M62.3225 52.8333C60.6003 52.8333 59.2031 54.2474 59.2031 55.9918C59.2031 57.7361 60.6003 59.1503 62.3225 59.1503C64.0427 59.1503 65.4398 57.7361 65.4398 55.9918C65.4397 54.2472 64.0426 52.8333 62.3225 52.8333Z" fill="black"/>
</g>
</g>
<defs>
<filter id="filter0_i_2546:27762" x="107" y="0" width="84.0703" height="122.286" filterUnits="userSpaceOnUse" color-interpolation-filters="sRGB">
<feFlood flood-opacity="0" result="BackgroundImageFix"/>
<feBlend mode="normal" in="SourceGraphic" in2="BackgroundImageFix" result="shape"/>
<feColorMatrix in="SourceAlpha" type="matrix" values="0 0 0 0 0 0 0 0 0 0 0 0 0 0 0 0 0 0 127 0" result="hardAlpha"/>
<feOffset dy="15.2857"/>
<feGaussianBlur stdDeviation="15.2857"/>
<feComposite in2="hardAlpha" operator="arithmetic" k2="-1" k3="1"/>
<feColorMatrix type="matrix" values="0 0 0 0 0.470833 0 0 0 0 0.360874 0 0 0 0 0.284462 0 0 0 0.06 0"/>
<feBlend mode="normal" in2="shape" result="effect1_innerShadow_2546:27762"/>
</filter>
<clipPath id="clip0_2546:27762">
<rect width="191" height="107" rx="19.11" fill="white"/>
</clipPath>
<clipPath id="clip1_2546:27762">
<rect width="77" height="77" fill="white" transform="translate(16 15)"/>
</clipPath>
</defs>
</svg>
