<svg width="191" height="107" viewBox="0 0 191 107" fill="none" xmlns="http://www.w3.org/2000/svg">
<g clip-path="url(#clip0_2547:27867)">
<rect width="191" height="107" rx="19.11" fill="#FFB9B9"/>
<g filter="url(#filter0_i_2547:27867)">
<path d="M107 0H171.964C182.517 0 191.071 8.55456 191.071 19.1071V87.8929C191.071 98.4454 182.517 107 171.964 107H107V0Z" fill="#FA8B8A"/>
<path d="M131.84 39.1162L160.501 71.689" stroke="white" stroke-width="3.82143" stroke-linecap="round" stroke-linejoin="round"/>
<path d="M132.602 72.6071L159.746 38.2142" stroke="white" stroke-width="3.82143" stroke-linecap="round" stroke-linejoin="round"/>
</g>
<g clip-path="url(#clip1_2547:27867)">
<path d="M43.639 49.1096C43.639 46.9492 46.6995 45.1241 50.3221 45.1241C51.1048 45.1241 51.7393 44.4896 51.7393 43.7069C51.7393 42.9242 51.1048 42.2898 50.3221 42.2898C44.9852 42.2898 40.8047 45.2853 40.8047 49.1096C40.8047 49.8923 41.4391 50.5267 42.2218 50.5267C43.0045 50.5267 43.639 49.8923 43.639 49.1096Z" fill="black"/>
<path d="M59.4992 45.1241C63.1221 45.1241 66.1829 46.9492 66.1829 49.1096C66.1829 49.8923 66.8174 50.5267 67.6001 50.5267C68.3827 50.5267 69.0172 49.8923 69.0172 49.1096C69.0172 45.2855 64.8364 42.2898 59.4992 42.2898C58.7165 42.2898 58.082 42.9242 58.082 43.7069C58.082 44.4896 58.7165 45.1241 59.4992 45.1241Z" fill="black"/>
<path d="M84.2562 20.5147C84.1094 20.3556 83.9283 20.2323 83.7265 20.1541C79.5957 18.5543 76.042 18.6182 73.1641 20.3441C69.9185 22.2904 68.3951 25.8808 67.7135 28.2582C64.0333 25.8188 59.7376 24.5061 55.2753 24.5061C50.4294 24.5061 45.7804 26.0532 41.9031 28.9101C41.2813 26.5952 39.7056 22.4622 36.0682 20.3299C33.1477 18.6182 29.5782 18.5589 25.4589 20.1542C25.1607 20.2697 24.9103 20.4827 24.7485 20.7586C24.683 20.8703 23.1504 23.5368 23.603 27.4984C23.9981 30.9566 26.0376 36.1434 33.4549 41.3617C33.0492 43.0067 32.839 44.7059 32.839 46.4339V46.9383C29.3876 51.4098 28.9123 56.6864 28.9123 61.2855C28.9123 68.153 31.6289 74.6195 36.5615 79.4939C41.4767 84.3511 47.9765 87.0261 54.8635 87.0261C61.7458 87.0261 68.2409 84.351 73.1524 79.4935C78.0809 74.6191 80.7952 68.1527 80.7952 61.2855L80.7957 60.7281C80.8016 56.5986 80.8075 52.3334 77.7098 48.597V46.4339C77.7098 44.3629 77.4088 42.333 76.8292 40.3887C76.9384 40.3488 77.0447 40.2955 77.1451 40.2267C82.8279 36.3301 85.9544 32.1817 86.4375 27.8971C86.9359 23.4763 84.3659 20.6336 84.2562 20.5147ZM26.9932 22.6081C30.0356 21.5345 32.6007 21.5879 34.6239 22.769C38.5553 25.064 39.4485 30.917 39.457 30.9759C39.4574 30.9794 39.4586 30.9827 39.459 30.9862C37.2079 33.1825 35.4898 35.7445 34.369 38.5266C24.2948 31.0785 26.2554 24.3345 26.9932 22.6081ZM77.9615 60.7239L77.9609 61.2852C77.9609 73.9158 67.5994 84.1916 54.8635 84.1916C42.1168 84.1916 31.7465 73.9158 31.7465 61.2852C31.7465 57.049 32.1748 52.1973 35.3509 48.333C35.5593 48.0795 35.6733 47.7615 35.6733 47.4331V46.4336C35.6733 36.084 44.6498 27.3405 55.2752 27.3405C59.8418 27.3405 64.1029 28.9569 67.4785 31.6208C67.617 31.806 67.7998 31.9572 68.0143 32.0571C72.1884 35.5892 74.8754 40.7711 74.8754 46.4336V49.1244C74.8754 49.4752 75.0056 49.8138 75.2409 50.0741C77.9722 53.0987 77.9673 56.6323 77.9615 60.7239ZM83.6146 27.635C83.2173 30.9345 80.5241 34.4079 75.822 37.694C74.6931 35.2033 73.0762 32.9063 71.0164 30.9142C70.7391 30.6459 70.4559 30.3859 70.1677 30.1335C70.5309 28.4385 71.6629 24.5418 74.6318 22.769C76.645 21.5665 79.2421 21.5325 82.3554 22.6666C82.8154 23.2893 83.9212 25.0863 83.6146 27.635Z" fill="black"/>
<path d="M55.539 53.2803C47.8949 53.2803 41.6758 58.4792 41.6758 64.8693C41.6758 71.2589 47.8949 76.4573 55.539 76.4573C63.1836 76.4573 69.4028 71.259 69.4028 64.8693C69.4028 58.479 63.1836 53.2803 55.539 53.2803ZM55.539 73.6229C49.4575 73.6229 44.51 69.696 44.51 64.8691C44.51 60.0417 49.4577 56.1144 55.539 56.1144C61.6206 56.1144 66.5685 60.0417 66.5685 64.8691C66.5685 69.696 61.6206 73.6229 55.539 73.6229Z" fill="black"/>
<path d="M50.7079 61.6462C49.0489 61.6462 47.6992 62.9959 47.6992 64.6548C47.6992 66.3138 49.0489 67.6634 50.7079 67.6634C52.3668 67.6634 53.7165 66.3137 53.7165 64.6548C53.7166 62.9959 52.367 61.6462 50.7079 61.6462Z" fill="black"/>
<path d="M60.677 61.6462C59.0157 61.6462 57.6641 62.9959 57.6641 64.6548C57.6641 66.3138 59.0157 67.6634 60.677 67.6634C62.3355 67.6634 63.6846 66.3137 63.6846 64.6548C63.6846 62.9959 62.3355 61.6462 60.677 61.6462Z" fill="black"/>
</g>
</g>
<defs>
<filter id="filter0_i_2547:27867" x="107" y="0" width="84.0703" height="122.286" filterUnits="userSpaceOnUse" color-interpolation-filters="sRGB">
<feFlood flood-opacity="0" result="BackgroundImageFix"/>
<feBlend mode="normal" in="SourceGraphic" in2="BackgroundImageFix" result="shape"/>
<feColorMatrix in="SourceAlpha" type="matrix" values="0 0 0 0 0 0 0 0 0 0 0 0 0 0 0 0 0 0 127 0" result="hardAlpha"/>
<feOffset dy="15.2857"/>
<feGaussianBlur stdDeviation="15.2857"/>
<feComposite in2="hardAlpha" operator="arithmetic" k2="-1" k3="1"/>
<feColorMatrix type="matrix" values="0 0 0 0 0.470833 0 0 0 0 0.360874 0 0 0 0 0.284462 0 0 0 0.06 0"/>
<feBlend mode="normal" in2="shape" result="effect1_innerShadow_2547:27867"/>
</filter>
<clipPath id="clip0_2547:27867">
<rect width="191" height="107" rx="19.11" fill="white"/>
</clipPath>
<clipPath id="clip1_2547:27867">
<rect width="68.026" height="68.026" fill="white" transform="translate(21 19)"/>
</clipPath>
</defs>
</svg>
