<svg width="191" height="107" viewBox="0 0 191 107" fill="none" xmlns="http://www.w3.org/2000/svg">
<g clip-path="url(#clip0_2548:27941)">
<rect width="191" height="107" rx="19.11" fill="#FFB9B9"/>
<g filter="url(#filter0_i_2548:27941)">
<path d="M107 0H171.964C182.517 0 191.071 8.55456 191.071 19.1071V87.8929C191.071 98.4454 182.517 107 171.964 107H107V0Z" fill="#FA8B8A"/>
<path d="M131.84 39.1162L160.501 71.689" stroke="white" stroke-width="3.82143" stroke-linecap="round" stroke-linejoin="round"/>
<path d="M132.602 72.6071L159.746 38.2142" stroke="white" stroke-width="3.82143" stroke-linecap="round" stroke-linejoin="round"/>
</g>
<g clip-path="url(#clip1_2548:27941)">
<path d="M33.2273 36.3665C32.4307 36.3665 31.7852 37.0126 31.7852 37.8088C31.7852 38.6055 32.4309 39.2511 33.2273 39.2511C34.0241 39.2511 34.6695 38.6055 34.6695 37.8088C34.6698 37.0126 34.0242 36.3665 33.2273 36.3665Z" fill="black"/>
<path d="M71.1788 59.1619L71.1877 59.1365C71.2029 59.0917 71.2148 59.0462 71.2241 59.0006C71.3551 58.521 71.4217 58.0312 71.4217 57.5436C71.4217 54.4949 68.9413 52.0143 65.8923 52.014H49.8989C44.3716 52.014 39.875 56.5109 39.875 62.038C39.875 67.5648 44.3718 72.0614 49.8989 72.0614H53.2555C55.5734 72.0614 57.8332 71.6465 59.9806 70.8271C60.6806 71.1361 61.44 71.2975 62.2066 71.2975C64.4458 71.2975 66.445 69.9392 67.2981 67.9166C69.6941 67.2897 71.4216 65.1086 71.4216 62.5709C71.4216 61.7072 71.2205 60.8631 70.8359 60.0973C70.8973 59.9406 70.9578 59.7808 71.0166 59.6187C71.0772 59.4696 71.1317 59.3161 71.1788 59.1619ZM66.2881 65.7681C65.8224 65.825 65.4377 66.1583 65.3153 66.611C64.936 68.0132 63.6576 68.9925 62.2065 68.9925C61.648 68.9925 61.0957 68.8447 60.6088 68.5656C60.299 68.3879 59.9245 68.3637 59.5943 68.5004C57.581 69.3339 55.4483 69.7565 53.2553 69.7565H49.8988C45.6425 69.7565 42.1799 66.2942 42.1799 62.0381C42.1799 57.7819 45.6425 54.3192 49.8988 54.3192H65.892C67.6699 54.3194 69.1165 55.7658 69.1165 57.5438C69.1165 57.8436 69.0725 58.147 68.9856 58.4456C68.9812 58.461 68.9771 58.4764 68.9732 58.4918C68.9446 58.5846 68.9116 58.6771 68.8747 58.7665C68.8683 58.7819 68.8623 58.7975 68.8567 58.8131C68.7418 59.1312 68.6209 59.4378 68.4974 59.7239C68.3445 60.0794 68.3797 60.4877 68.5915 60.8114C68.9352 61.3366 69.1167 61.9451 69.1167 62.5712C69.1165 64.1964 67.9006 65.5709 66.2881 65.7681Z" fill="black"/>
<path d="M89.8864 48.292C91.1127 46.6545 90.9819 44.3153 89.4936 42.8268C88.7035 42.0365 87.6527 41.6012 86.535 41.6012C85.8478 41.6012 85.1859 41.7658 84.5941 42.0764C84.5823 39.7791 82.7098 37.9139 80.41 37.9139C78.1027 37.9139 76.2255 39.7912 76.2255 42.0984V47.7425H48.422V39.0665C48.422 35.1962 46.5106 31.7661 43.5845 29.6635L45.9559 28.0719C46.1422 27.9449 46.3189 27.7939 46.4656 27.6368C47.0119 27.0533 47.2982 26.2918 47.2717 25.4931C47.2455 24.6944 46.9096 23.9537 46.3258 23.4073C45.6201 22.7469 44.6768 22.4948 43.7893 22.6417C43.7518 22.3071 43.6569 21.9777 43.5052 21.6657C43.1561 20.9467 42.5477 20.4069 41.7925 20.1453C41.0371 19.8834 40.225 19.932 39.5059 20.2813C39.2945 20.384 39.0986 20.509 38.9207 20.6539C38.309 19.7953 37.2609 19.285 36.1415 19.4123C35.3474 19.503 34.6361 19.8974 34.1386 20.5231C33.9868 20.714 33.8604 20.9196 33.7608 21.1355C32.8158 20.533 31.5682 20.4871 30.5575 21.1217C29.8804 21.5466 29.4094 22.2097 29.2311 22.9889C29.0529 23.7679 29.1887 24.5702 29.6138 25.2472L31.7627 28.6709C28.5784 30.2347 26.213 33.2181 25.4978 36.7917H24.9575C21.6725 36.7919 19 39.4643 19 42.7493C19 43.3859 19.516 43.9019 20.1526 43.9019H20.4579C20.9175 45.6453 22.3941 46.979 24.2121 47.2296L23.4344 51.5018C23.3204 52.128 23.7356 52.7281 24.3621 52.8422C24.4319 52.8549 24.5014 52.8609 24.5698 52.8609C24.9324 52.8609 25.2671 52.6885 25.4816 52.4103C27.0563 65.6864 37.433 76.3012 50.5962 78.2382V85.3018H46.7506C46.1141 85.3018 45.598 85.8177 45.598 86.4544C45.598 87.0912 46.114 87.607 46.7506 87.607H60.4396C61.0761 87.607 61.5922 87.0912 61.5922 86.4544C61.5922 85.8177 61.0762 85.3018 60.4396 85.3018H59.236V78.2395C64.5089 77.4633 69.5215 75.2751 73.6738 71.886C78.6267 67.8433 82.1649 62.2697 83.7078 56.1115H87.8161C88.9336 56.1115 89.9844 55.6762 90.7747 54.8856C91.565 54.0953 92.0003 53.0445 92.0003 51.9271C91.9999 50.3729 91.148 49.0138 89.8864 48.292ZM25.272 44.9682H24.8324C24.0311 44.9682 23.3299 44.54 22.9398 43.9019H25.272V44.9682ZM25.272 41.5967H21.4913C21.9749 40.1458 23.3459 39.0967 24.9573 39.0967H25.2718V41.5967H25.272ZM43.7788 25.1223C44.0379 24.8455 44.4738 24.8308 44.7505 25.09C44.8845 25.2155 44.9617 25.3857 44.9678 25.5691C44.9739 25.7526 44.9081 25.9274 44.7816 26.0627C44.7495 26.0971 44.7029 26.1363 44.664 26.1628L41.3345 28.3975C41.075 28.288 40.8094 28.1904 40.5408 28.0997C40.8323 28.0867 41.1182 27.9648 41.3314 27.737L43.7788 25.1223ZM36.2529 26.4515L35.7978 22.4632C35.7768 22.2807 35.8283 22.1013 35.9426 21.9575C36.057 21.8136 36.2204 21.7231 36.4026 21.7024C36.7794 21.6602 37.1208 21.9308 37.1637 22.3081C37.1691 22.3553 37.1688 22.4153 37.1637 22.4633L36.8248 25.4322C36.758 26.0162 37.1414 26.5566 37.7146 26.6868C38.2882 26.8174 38.8669 26.495 39.0591 25.9399L40.1636 22.7481C40.2237 22.5747 40.3477 22.4351 40.5128 22.3547C40.6781 22.2746 40.8647 22.2634 41.0381 22.3235C41.2116 22.3836 41.3515 22.5075 41.4316 22.6728C41.5119 22.8379 41.5228 23.0242 41.4628 23.1979C41.4471 23.2432 41.4208 23.2978 41.3954 23.3385L39.5135 26.3367C39.1978 26.8396 39.3159 27.5 39.7862 27.8626C39.7929 27.8679 39.8004 27.8723 39.8073 27.8774C38.8618 27.6269 37.8697 27.492 36.8464 27.492C36.4727 27.492 36.1036 27.5114 35.7389 27.5462C36.0941 27.3132 36.3036 26.8952 36.2529 26.4515ZM31.5659 24.0218C31.4683 23.8661 31.437 23.6819 31.4778 23.5029C31.5189 23.3238 31.6268 23.1715 31.7825 23.074C32.1036 22.8724 32.5288 22.9695 32.7301 23.2904C32.7556 23.3312 32.7817 23.3864 32.7977 23.4313L34.0186 26.9592C34.1423 27.3168 34.4268 27.5772 34.7665 27.6825C34.4983 27.7314 34.2324 27.7866 33.9709 27.8536L31.5659 24.0218ZM56.9305 85.3018H52.9011V78.4853C53.5729 78.5311 54.2502 78.5563 54.9333 78.5563C55.6009 78.5563 56.2669 78.5328 56.9305 78.4878V85.3018ZM89.1443 53.2561C88.7893 53.611 88.3175 53.8066 87.8156 53.8066H82.7931C82.2505 53.8066 81.7815 54.185 81.6667 54.7151C80.3648 60.7246 77.0083 66.1886 72.2158 70.1003C67.356 74.0667 61.2185 76.2511 54.9333 76.2511C39.8491 76.2511 27.5772 63.9793 27.5772 48.8949V39.0665C27.5772 33.9551 31.7357 29.7968 36.8469 29.7968C41.9584 29.7968 46.117 33.9554 46.117 39.0665V48.8949C46.117 49.5315 46.633 50.0475 47.2696 50.0475H77.378C78.0144 50.0475 78.5306 49.5317 78.5306 48.8949V42.0984C78.5306 41.062 79.3736 40.2189 80.41 40.2189C81.4463 40.2189 82.2892 41.062 82.2892 42.0984V44.5914C82.2892 45.0575 82.5701 45.4779 83.0006 45.6563C83.4312 45.8345 83.9271 45.7361 84.2566 45.4062L85.206 44.4566C85.5611 44.1016 86.033 43.9061 86.535 43.9061C87.037 43.9061 87.5089 44.1016 87.8638 44.4565C88.5967 45.1896 88.5968 46.3819 87.8641 47.1146L86.8987 48.0798C86.5689 48.4094 86.4704 48.9052 86.6488 49.3359C86.8271 49.7666 87.2475 50.0474 87.7135 50.0474H87.8155C88.8519 50.0475 89.6947 50.8907 89.6947 51.9271C89.6947 52.4291 89.4993 52.9011 89.1443 53.2561Z" fill="black"/>
</g>
</g>
<defs>
<filter id="filter0_i_2548:27941" x="107" y="0" width="84.0703" height="122.286" filterUnits="userSpaceOnUse" color-interpolation-filters="sRGB">
<feFlood flood-opacity="0" result="BackgroundImageFix"/>
<feBlend mode="normal" in="SourceGraphic" in2="BackgroundImageFix" result="shape"/>
<feColorMatrix in="SourceAlpha" type="matrix" values="0 0 0 0 0 0 0 0 0 0 0 0 0 0 0 0 0 0 127 0" result="hardAlpha"/>
<feOffset dy="15.2857"/>
<feGaussianBlur stdDeviation="15.2857"/>
<feComposite in2="hardAlpha" operator="arithmetic" k2="-1" k3="1"/>
<feColorMatrix type="matrix" values="0 0 0 0 0.470833 0 0 0 0 0.360874 0 0 0 0 0.284462 0 0 0 0.06 0"/>
<feBlend mode="normal" in2="shape" result="effect1_innerShadow_2548:27941"/>
</filter>
<clipPath id="clip0_2548:27941">
<rect width="191" height="107" rx="19.11" fill="white"/>
</clipPath>
<clipPath id="clip1_2548:27941">
<rect width="73" height="73" fill="white" transform="translate(19 17)"/>
</clipPath>
</defs>
</svg>
