<svg width="191" height="107" viewBox="0 0 191 107" fill="none" xmlns="http://www.w3.org/2000/svg">
<g clip-path="url(#clip0_2548:28101)">
<rect width="191" height="107" rx="19.11" fill="#FFB9B9"/>
<g filter="url(#filter0_i_2548:28101)">
<path d="M107 0H171.964C182.517 0 191.071 8.55456 191.071 19.1071V87.8929C191.071 98.4454 182.517 107 171.964 107H107V0Z" fill="#FA8B8A"/>
<path d="M131.84 39.1162L160.501 71.689" stroke="white" stroke-width="3.82143" stroke-linecap="round" stroke-linejoin="round"/>
<path d="M132.602 72.6071L159.746 38.2142" stroke="white" stroke-width="3.82143" stroke-linecap="round" stroke-linejoin="round"/>
</g>
<path d="M75.9687 20.4536H38.5518C37.8331 20.4536 37.2484 19.8688 37.2484 19.1501C37.2484 18.5148 36.7334 18 36.0983 18C35.4631 18 34.9482 18.5148 34.9482 19.1501C34.9482 21.1372 36.5648 22.7538 38.5518 22.7538H75.9687C82.4372 22.7538 87.6998 28.0162 87.6998 34.4849C87.6998 40.2578 83.5071 45.0666 78.0076 46.0349C80.887 42.7969 82.6393 38.5353 82.6393 33.8715V31.4179C82.6393 29.4308 81.0227 27.8143 79.0356 27.8143H45.9125C37.8096 27.8143 30.9404 30.9404 26.0474 36.8547C21.5028 42.3479 19 50.002 19 58.4071C19 75.2761 32.7239 89 49.5929 89H64.3143C64.7128 89 65.083 88.7936 65.2926 88.4545C65.5022 88.1153 65.5213 87.6919 65.3429 87.3354L63.1203 82.8903L65.382 77.2359C65.5541 76.8059 65.4513 76.3149 65.1216 75.9898C64.7918 75.6646 64.2992 75.569 63.8718 75.7472L49.3698 81.7897C41.3126 81.67 34.7948 75.0796 34.7948 66.9946C34.7948 59.0125 41.1479 52.4871 49.0629 52.2071L54.2746 58.4611C54.4695 58.6948 54.5767 58.9912 54.5767 59.2955V65.7678C54.5767 66.4031 55.0916 66.9179 55.7268 66.9179C56.3619 66.9179 56.8769 66.4031 56.8769 65.7678V59.2955C56.8769 58.4541 56.5802 57.6347 56.0416 56.9884L52.0484 52.1965H55.1881L60.4085 58.4611C60.6034 58.6948 60.7106 58.9912 60.7106 59.2955V65.7678C60.7106 66.4031 61.2255 66.9179 61.8607 66.9179C62.4959 66.9179 63.0108 66.4031 63.0108 65.7678V59.2955C63.0108 58.4541 62.7141 57.6347 62.1755 56.9884L58.1823 52.1965H61.322L66.5424 58.4611C66.7373 58.6948 66.8445 58.9912 66.8445 59.2955V65.7678C66.8445 66.4031 67.3594 66.9179 67.9946 66.9179C68.6298 66.9179 69.1447 66.4031 69.1447 65.7678V59.2955C69.1447 58.4541 68.848 57.6347 68.3094 56.9884L64.3162 52.1965C68.4421 52.1961 72.2534 50.8245 75.3196 48.5145C75.3315 48.5148 75.3433 48.5164 75.3553 48.5164H75.9687C83.7055 48.5164 90 42.2219 90 34.485C90 26.7482 83.7055 20.4536 75.9687 20.4536ZM80.3391 31.4179V33.8715C80.3391 42.7075 73.1505 49.8963 64.3143 49.8963H49.5929C49.5913 49.8963 49.5897 49.8963 49.5881 49.8963C49.587 49.8963 49.5858 49.8963 49.5847 49.8963C48.728 49.8968 47.886 49.961 47.0626 50.0837V30.1145H79.0356C79.7544 30.1145 80.3391 30.6992 80.3391 31.4179ZM44.7624 30.1395V50.5922C42.896 51.1427 41.1617 52.0035 39.619 53.1152L27.6114 38.5797C27.6807 38.4935 27.7493 38.4063 27.8196 38.3212C32.029 33.2331 37.869 30.4201 44.7624 30.1395ZM33.9793 73.9593L28.27 76.982C24.0074 72.0953 21.3947 65.7352 21.3048 58.7776L33.0436 62.6904C32.6855 64.0661 32.4946 65.5085 32.4946 66.9946C32.4946 69.4738 33.0261 71.8309 33.9793 73.9593ZM60.832 83.4571L62.4534 86.6998H50.743V83.7095L62.2298 78.9234L60.7929 82.5157C60.6709 82.8207 60.6851 83.1633 60.832 83.4571ZM48.4428 84.0547V86.6768C41.257 86.3877 34.7539 83.4045 29.9147 78.7139L35.0587 75.9906C37.8874 80.5435 42.7936 83.6775 48.4428 84.0547ZM33.7734 60.5091L21.3536 56.3691C21.6644 50.359 23.3517 44.8644 26.2149 40.5007L37.8466 54.5813C36.1006 56.2346 34.7023 58.2515 33.7734 60.5091Z" fill="black"/>
<path d="M65.5412 39.9287C67.5283 39.9287 69.1448 38.3121 69.1448 36.325C69.1448 34.3379 67.5283 32.7213 65.5412 32.7213C63.5541 32.7213 61.9375 34.3379 61.9375 36.325C61.9375 38.3121 63.5541 39.9287 65.5412 39.9287ZM65.5412 35.0215C66.2599 35.0215 66.8446 35.6062 66.8446 36.325C66.8446 37.0437 66.2599 37.6284 65.5412 37.6284C64.8224 37.6284 64.2377 37.0437 64.2377 36.325C64.2377 35.6062 64.8224 35.0215 65.5412 35.0215Z" fill="black"/>
</g>
<defs>
<filter id="filter0_i_2548:28101" x="107" y="0" width="84.0703" height="122.286" filterUnits="userSpaceOnUse" color-interpolation-filters="sRGB">
<feFlood flood-opacity="0" result="BackgroundImageFix"/>
<feBlend mode="normal" in="SourceGraphic" in2="BackgroundImageFix" result="shape"/>
<feColorMatrix in="SourceAlpha" type="matrix" values="0 0 0 0 0 0 0 0 0 0 0 0 0 0 0 0 0 0 127 0" result="hardAlpha"/>
<feOffset dy="15.2857"/>
<feGaussianBlur stdDeviation="15.2857"/>
<feComposite in2="hardAlpha" operator="arithmetic" k2="-1" k3="1"/>
<feColorMatrix type="matrix" values="0 0 0 0 0.470833 0 0 0 0 0.360874 0 0 0 0 0.284462 0 0 0 0.06 0"/>
<feBlend mode="normal" in2="shape" result="effect1_innerShadow_2548:28101"/>
</filter>
<clipPath id="clip0_2548:28101">
<rect width="191" height="107" rx="19.11" fill="white"/>
</clipPath>
</defs>
</svg>
