<svg width="191" height="107" viewBox="0 0 191 107" fill="none" xmlns="http://www.w3.org/2000/svg">
<g clip-path="url(#clip0_2548:28042)">
<rect width="191" height="107" rx="19.11" fill="#FFB9B9"/>
<g filter="url(#filter0_i_2548:28042)">
<path d="M107 0H171.964C182.517 0 191.071 8.55456 191.071 19.1071V87.8929C191.071 98.4454 182.517 107 171.964 107H107V0Z" fill="#FA8B8A"/>
<path d="M131.84 39.1162L160.501 71.689" stroke="white" stroke-width="3.82143" stroke-linecap="round" stroke-linejoin="round"/>
<path d="M132.602 72.6071L159.746 38.2142" stroke="white" stroke-width="3.82143" stroke-linecap="round" stroke-linejoin="round"/>
</g>
<g clip-path="url(#clip1_2548:28042)">
<path d="M81.9739 38.9097C76.8516 31.5766 68.7906 26.7823 59.8579 25.756C59.8497 25.755 59.8416 25.7552 59.8331 25.7545C58.5428 25.0956 57.0838 24.7214 55.5383 24.7214H34.1626C33.3926 24.7214 32.7682 25.3458 32.7682 26.1158C32.7682 32.2836 35.9645 37.7182 40.7872 40.8524H31.5941C26.0626 40.8524 21.5626 36.3522 21.5626 30.8207C21.5626 25.2892 26.0626 20.7889 31.5941 20.7889H41.228C41.998 20.7889 42.6224 20.1644 42.6224 19.3944C42.6224 18.6244 41.998 18 41.228 18H31.5941C24.5248 18 18.7734 23.7514 18.7734 30.8206C18.7734 37.8898 24.5248 43.641 31.5939 43.641H49.1958C49.5715 43.6651 49.9498 43.6787 50.3314 43.6787H55.5383C56.951 43.6787 58.2913 43.3658 59.4971 42.8093C59.5179 42.8103 59.5382 42.8123 59.5592 42.8123H60.4056C62.6893 42.951 64.8768 43.651 66.8179 44.8531C64.1985 47.102 62.5363 50.4358 62.5363 54.1507C62.5363 56.5092 64.455 58.4279 66.8136 58.4279C69.1721 58.4279 71.0908 56.5092 71.0908 54.1507C71.0908 52.9871 71.6316 51.9477 72.4745 51.2691C73.2655 52.9441 73.7688 54.7666 73.9423 56.6066C73.8867 59.8151 73.1056 65.7282 68.5706 69.8382C66.1053 72.0727 63.5047 72.9592 60.6514 73.6362C59.291 71.1477 55.0841 69.6315 52.69 69.6315C49.5746 69.6315 47.0401 72.166 47.0401 75.2814C47.0401 76.5856 47.4875 77.8269 48.282 78.8166C47.4874 79.8063 47.0401 81.0476 47.0401 82.3518C47.0401 85.4672 49.5746 88.0017 52.69 88.0017C55.226 88.0017 59.7962 86.3001 60.8621 83.5439L61.0114 83.5356C66.8693 83.2144 72.6279 80.8858 77.2264 76.9782C81.7792 73.1097 85.0469 67.8303 86.4274 62.1129C88.3747 54.0493 86.793 45.8089 81.9739 38.9097ZM58.3004 82.3518C58.3004 82.7293 57.7126 83.4462 56.4222 84.1279C55.0114 84.8734 53.4985 85.2128 52.6898 85.2128C51.1123 85.2128 49.8288 83.9293 49.8288 82.3517C49.8288 81.3967 50.3032 80.5079 51.0981 79.9742C51.4839 79.7153 51.7153 79.2811 51.7153 78.8165C51.7153 78.3519 51.4839 77.9178 51.0981 77.6587C50.3032 77.1252 49.8288 76.2364 49.8288 75.2813C49.8288 73.7038 51.1122 72.4202 52.6898 72.4202C53.4987 72.4202 55.0115 72.7598 56.4222 73.505C57.7126 74.1868 58.3004 74.9036 58.3004 75.2811V82.3518ZM55.5383 40.89H51.8513C51.749 40.8662 51.6432 40.8523 51.5338 40.8523H49.2719C42.08 40.3401 36.2947 34.6573 35.6223 27.5101H55.5383C59.2272 27.5101 62.2284 30.5112 62.2284 34.2002C62.2284 37.8888 59.2273 40.89 55.5383 40.89ZM68.302 54.1508C68.302 54.9715 67.6344 55.6392 66.8136 55.6392C65.9929 55.6392 65.3251 54.9716 65.3251 54.1508C65.3251 48.9323 69.5706 44.6868 74.7892 44.6868C75.6099 44.6868 76.2777 45.3544 76.2777 46.1752C76.2777 46.9959 75.6101 47.6637 74.7892 47.6637C71.2123 47.6637 68.302 50.5738 68.302 54.1508ZM83.7166 61.4582C81.1358 72.1461 71.8507 80.0416 61.0892 80.7355V76.3981C64.3115 75.6455 67.4512 74.6169 70.4435 71.905C75.7949 67.055 76.6805 60.2176 76.732 56.5737C76.7327 56.5254 76.7309 56.4774 76.7265 56.4295C76.5421 54.3704 76.0048 52.3287 75.159 50.4354C77.3449 50.2472 79.0665 48.4091 79.0665 46.175C79.0665 43.8166 77.1478 41.8978 74.7892 41.8978C72.8286 41.8978 70.9745 42.3614 69.3295 43.1837C67.3568 41.7489 65.1302 40.7774 62.7742 40.3135C64.1719 38.6617 65.0171 36.5283 65.0171 34.2002C65.0171 32.4122 64.519 30.7383 63.6548 29.3095C70.1229 31.0333 75.824 34.9761 79.6872 40.5069C84.0427 46.7416 85.4735 54.1824 83.7166 61.4582Z" fill="black"/>
<path d="M45.1661 29.8276C44.1806 29.8276 43.3789 30.6295 43.3789 31.6149C43.3789 32.6002 44.1808 33.402 45.1661 33.402C46.1515 33.402 46.9532 32.6002 46.9532 31.6149C46.9532 30.6295 46.1516 29.8276 45.1661 29.8276Z" fill="black"/>
<path d="M51.5281 18H48.8397C48.0697 18 47.4453 18.6244 47.4453 19.3944C47.4453 20.1644 48.0697 20.7889 48.8397 20.7889H51.5281C52.2981 20.7889 52.9225 20.1644 52.9225 19.3944C52.9225 18.6244 52.2981 18 51.5281 18Z" fill="black"/>
</g>
</g>
<defs>
<filter id="filter0_i_2548:28042" x="107" y="0" width="84.0703" height="122.286" filterUnits="userSpaceOnUse" color-interpolation-filters="sRGB">
<feFlood flood-opacity="0" result="BackgroundImageFix"/>
<feBlend mode="normal" in="SourceGraphic" in2="BackgroundImageFix" result="shape"/>
<feColorMatrix in="SourceAlpha" type="matrix" values="0 0 0 0 0 0 0 0 0 0 0 0 0 0 0 0 0 0 127 0" result="hardAlpha"/>
<feOffset dy="15.2857"/>
<feGaussianBlur stdDeviation="15.2857"/>
<feComposite in2="hardAlpha" operator="arithmetic" k2="-1" k3="1"/>
<feColorMatrix type="matrix" values="0 0 0 0 0.470833 0 0 0 0 0.360874 0 0 0 0 0.284462 0 0 0 0.06 0"/>
<feBlend mode="normal" in2="shape" result="effect1_innerShadow_2548:28042"/>
</filter>
<clipPath id="clip0_2548:28042">
<rect width="191" height="107" rx="19.11" fill="white"/>
</clipPath>
<clipPath id="clip1_2548:28042">
<rect width="70.002" height="70.002" fill="white" transform="translate(18 18)"/>
</clipPath>
</defs>
</svg>
