<svg width="191" height="107" viewBox="0 0 191 107" fill="none" xmlns="http://www.w3.org/2000/svg">
<g clip-path="url(#clip0_2548:27934)">
<rect width="191" height="107" rx="19.11" fill="#FFB9B9"/>
<g filter="url(#filter0_i_2548:27934)">
<path d="M107 0H171.964C182.517 0 191.071 8.55456 191.071 19.1071V87.8929C191.071 98.4454 182.517 107 171.964 107H107V0Z" fill="#FA8B8A"/>
<path d="M131.84 39.1162L160.501 71.689" stroke="white" stroke-width="3.82143" stroke-linecap="round" stroke-linejoin="round"/>
<path d="M132.602 72.6071L159.746 38.2142" stroke="white" stroke-width="3.82143" stroke-linecap="round" stroke-linejoin="round"/>
</g>
<g clip-path="url(#clip1_2548:27934)">
<path d="M71.4892 64.5923C71.0753 63.0957 69.5918 57.7237 69.0961 55.8051C68.7115 54.3164 68.1136 52.911 67.3149 51.6159C70.3535 48.2168 72.8341 44.2976 74.6957 39.9528C77.6129 33.1447 78.7313 25.9002 77.9299 19.0025C77.8829 18.5992 77.624 18.2517 77.2507 18.0919C76.8772 17.9316 76.4471 17.9839 76.1228 18.2282C70.576 22.4056 66.1019 28.2121 63.1848 35.0202C61.716 38.448 60.7007 41.9938 60.1588 45.5818C58.3776 44.8704 56.4494 44.4991 54.5012 44.4991C52.5531 44.4991 50.6249 44.8704 48.8437 45.5818C48.3018 41.9938 47.2863 38.448 45.8177 35.0202C42.9003 28.2121 38.4263 22.4056 32.8794 18.2282C32.5552 17.9839 32.1251 17.9316 31.7515 18.0919C31.3782 18.2519 31.1191 18.5992 31.0723 19.0025C30.2709 25.9 31.3894 33.1445 34.3065 39.9528C36.1682 44.2974 38.6492 48.2171 41.6871 51.6159C40.8886 52.911 40.2906 54.3164 39.906 55.8051C39.4104 57.7237 37.9269 63.0957 37.513 64.5923C34.3823 66.8737 32.526 70.5055 32.526 74.3923C32.526 81.0757 37.9635 86.5132 44.6471 86.5132H47.3771C49.3988 88.1207 51.9117 89.0011 54.5008 89.0011C57.0899 89.0011 59.6027 88.1207 61.6244 86.5132H64.3545C71.0381 86.5132 76.4756 81.0757 76.4756 74.3923C76.476 70.5053 74.6197 66.8736 71.4892 64.5923ZM64.3549 84.2472H61.2176C60.9469 84.2472 60.6853 84.3442 60.4798 84.5205C58.8155 85.9486 56.6923 86.7351 54.5011 86.7351C52.3099 86.7351 50.1865 85.9486 48.5224 84.5205C48.3171 84.3442 48.0553 84.2472 47.7846 84.2472H44.6472C39.2131 84.2472 34.7922 79.8262 34.7922 74.3923C34.7922 71.1163 36.4145 68.0629 39.1318 66.2241C39.3549 66.0732 39.5169 65.8478 39.5886 65.5883C39.5968 65.5592 39.9384 64.3263 40.3748 62.7394L44.1732 63.9222L44.6067 65.9222C44.7219 66.4529 45.1912 66.8154 45.713 66.8154C45.7925 66.8154 45.8733 66.8068 45.9541 66.7894C46.5658 66.6568 46.9538 66.0536 46.8214 65.4421L46.2478 62.7966C46.1612 62.3976 45.8669 62.0762 45.4772 61.9549L40.9744 60.5528C41.425 58.9047 41.8684 57.2681 42.0998 56.3719C42.4932 54.8497 43.1476 53.4305 44.0449 52.1542C44.3533 51.7156 44.312 51.1209 43.9461 50.7292C40.8115 47.3733 38.2689 43.4472 36.3891 39.0601C33.9201 33.2976 32.8109 27.2151 33.144 21.3415C37.6265 25.1518 41.2655 30.1501 43.7346 35.9127C45.2261 39.3937 46.2241 43.0002 46.7052 46.6441C46.1645 46.9696 45.6418 47.3279 45.1473 47.7192C44.6564 48.1073 44.5732 48.8199 44.9616 49.3105C45.185 49.5933 45.5165 49.7408 45.8509 49.7408C46.097 49.7408 46.3451 49.661 46.5529 49.4963C47.1422 49.0303 47.7766 48.6167 48.4379 48.2638C48.4431 48.2611 48.4486 48.2593 48.4538 48.2565C50.3142 47.2669 52.3489 46.7652 54.5011 46.7652C56.6533 46.7652 58.688 47.2669 60.5484 48.2565C60.5538 48.2594 60.5596 48.2612 60.565 48.2641C61.2262 48.617 61.8603 49.0305 62.4493 49.4963C62.6573 49.661 62.9052 49.7408 63.1513 49.7408C63.4857 49.7408 63.817 49.5933 64.0406 49.3105C64.4288 48.8199 64.3457 48.1073 63.8549 47.7192C63.3603 47.3279 62.8378 46.9698 62.297 46.6441C62.7781 43.0002 63.7761 39.3937 65.2675 35.9128C67.7369 30.1503 71.3759 25.152 75.8581 21.3416C76.1912 27.2152 75.0821 33.2977 72.613 39.0603C70.7332 43.4472 68.1908 47.3731 65.056 50.7292C64.69 51.1209 64.6488 51.7155 64.9571 52.1542C65.8544 53.4307 66.5088 54.8498 66.9022 56.3721C67.1338 57.2682 67.5772 58.9047 68.0277 60.553L63.5248 61.955C63.1351 62.0765 62.841 62.398 62.7543 62.7968L62.1807 65.4422C62.0482 66.0537 62.4363 66.6569 63.0479 66.7896C63.1287 66.8071 63.2094 66.8156 63.289 66.8156C63.8108 66.8154 64.2803 66.453 64.3953 65.9223L64.8288 63.9224L68.6272 62.7395C69.0638 64.3265 69.4054 65.5593 69.4134 65.5885C69.4853 65.848 69.6472 66.0734 69.8702 66.2243C72.5874 68.0631 74.2099 71.1166 74.2099 74.3924C74.21 79.8262 69.7891 84.2472 64.3549 84.2472Z" fill="#4D3D36"/>
<path d="M54.5022 75.556L56.2759 74.1839C56.4833 74.0233 56.7291 73.9472 56.9726 73.9481C56.9691 73.947 52.0352 73.947 52.0352 73.947C52.2752 73.9472 52.521 74.0233 52.7284 74.1839L54.5022 75.556Z" fill="#FFE6B8"/>
<path d="M56.9692 79.9334H55.6353V77.5442L57.6625 75.9758C58.1574 75.593 58.2483 74.8813 57.8654 74.3865C57.6431 74.099 57.3099 73.949 56.9729 73.9478C56.7292 73.9469 56.4836 74.0231 56.2762 74.1836L54.5022 75.556L52.7285 74.1839C52.5211 74.0233 52.2753 73.9472 52.0317 73.9481C51.6946 73.9494 51.3615 74.0994 51.1393 74.3868C50.7564 74.8815 50.8472 75.5932 51.3422 75.9761L53.3694 77.5445V79.9337H52.0354C51.4096 79.9337 50.9024 80.4409 50.9024 81.0667C50.9024 81.6926 51.4096 82.1997 52.0354 82.1997H56.9692C57.5951 82.1997 58.1022 81.6926 58.1022 81.0667C58.1022 80.4409 57.595 79.9334 56.9692 79.9334Z" fill="#4D3D36"/>
<path d="M52.6136 54.2034V52.5602C52.6136 51.9344 52.1065 51.4272 51.4806 51.4272C50.8548 51.4272 50.3477 51.9344 50.3477 52.5602V54.2034C50.3477 54.8292 50.8548 55.3364 51.4806 55.3364C52.1065 55.3364 52.6136 54.8292 52.6136 54.2034Z" fill="#FFE6B8"/>
<path d="M54.5002 60.2657C55.126 60.2657 55.6332 59.7586 55.6332 59.1327V57.4896C55.6332 56.8637 55.126 56.3566 54.5002 56.3566C53.8743 56.3566 53.3672 56.8637 53.3672 57.4896V59.1327C53.3672 59.7586 53.8745 60.2657 54.5002 60.2657Z" fill="#FFE6B8"/>
<path d="M57.5236 51.4272C56.8978 51.4272 56.3906 51.9344 56.3906 52.5602V54.2034C56.3906 54.8292 56.8978 55.3364 57.5236 55.3364C58.1495 55.3364 58.6566 54.8292 58.6566 54.2034V52.5602C58.6566 51.9345 58.1495 51.4272 57.5236 51.4272Z" fill="#FFE6B8"/>
</g>
</g>
<defs>
<filter id="filter0_i_2548:27934" x="107" y="0" width="84.0703" height="122.286" filterUnits="userSpaceOnUse" color-interpolation-filters="sRGB">
<feFlood flood-opacity="0" result="BackgroundImageFix"/>
<feBlend mode="normal" in="SourceGraphic" in2="BackgroundImageFix" result="shape"/>
<feColorMatrix in="SourceAlpha" type="matrix" values="0 0 0 0 0 0 0 0 0 0 0 0 0 0 0 0 0 0 127 0" result="hardAlpha"/>
<feOffset dy="15.2857"/>
<feGaussianBlur stdDeviation="15.2857"/>
<feComposite in2="hardAlpha" operator="arithmetic" k2="-1" k3="1"/>
<feColorMatrix type="matrix" values="0 0 0 0 0.470833 0 0 0 0 0.360874 0 0 0 0 0.284462 0 0 0 0.06 0"/>
<feBlend mode="normal" in2="shape" result="effect1_innerShadow_2548:27934"/>
</filter>
<clipPath id="clip0_2548:27934">
<rect width="191" height="107" rx="19.11" fill="white"/>
</clipPath>
<clipPath id="clip1_2548:27934">
<rect width="71.001" height="71.001" fill="white" transform="translate(19 18)"/>
</clipPath>
</defs>
</svg>
