<svg width="191" height="107" viewBox="0 0 191 107" fill="none" xmlns="http://www.w3.org/2000/svg">
<g clip-path="url(#clip0_2546:27772)">
<rect width="191" height="107" rx="19.11" fill="#FFB9B9"/>
<g filter="url(#filter0_i_2546:27772)">
<path d="M107 0H171.964C182.517 0 191.071 8.55456 191.071 19.1071V87.8929C191.071 98.4454 182.517 107 171.964 107H107V0Z" fill="#FA8B8A"/>
<path d="M131.84 39.1162L160.501 71.689" stroke="white" stroke-width="3.82143" stroke-linecap="round" stroke-linejoin="round"/>
<path d="M132.602 72.6071L159.746 38.2142" stroke="white" stroke-width="3.82143" stroke-linecap="round" stroke-linejoin="round"/>
</g>
<path d="M84.2847 37.9723C84.7878 36.8222 85.0489 35.5798 85.0489 34.3053C85.0489 29.2348 80.9237 25.1096 75.8532 25.1096C74.6181 25.1096 73.4162 25.3543 72.298 25.8273C72.1038 20.9271 68.0566 17 63.1096 17C59.6038 17 56.551 18.9727 55 21.8656C53.449 18.9727 50.3962 17 46.8904 17C41.9434 17 37.8962 20.9271 37.702 25.8273C36.5838 25.3543 35.3819 25.1096 34.1468 25.1096C29.0763 25.1096 24.9511 29.2348 24.9511 34.3053C24.9511 35.5798 25.2122 36.8222 25.7153 37.9723C21.3461 38.6824 18 42.4822 18 47.0489C18 51.4698 21.212 55.2413 25.811 56.2207C25.8291 56.2246 25.8473 56.228 25.8656 56.2309L35.433 57.7617C35.8566 63.5094 38.7898 68.7958 43.4873 72.2041V74.8532C43.4873 76.9943 44.9703 78.7945 46.9628 79.2832V84.8301L42.6469 89.1459C42.2228 89.5701 42.2228 90.2578 42.6469 90.6818C42.8589 90.8939 43.137 91 43.4149 91C43.6928 91 43.9708 90.894 44.1828 90.6818L46.9628 87.9018V89.9139C46.9628 90.5137 47.4491 91 48.0489 91C48.6487 91 49.135 90.5137 49.135 89.9139V87.9018L51.915 90.6818C52.127 90.8939 52.4051 91 52.683 91C52.9609 91 53.2389 90.894 53.4509 90.6818C53.8751 90.2577 53.8751 89.57 53.4509 89.1459L49.135 84.8301V79.2831C50.8337 78.8665 52.1624 77.4968 52.517 75.7748C53.3561 75.8842 54.1873 75.9393 55 75.9393C55.8127 75.9393 56.6439 75.8842 57.483 75.7748C57.8376 77.4968 59.1663 78.8665 60.865 79.2831V84.8299L56.5491 89.1458C56.1249 89.57 56.1249 90.2577 56.5491 90.6817C56.7611 90.8937 57.0391 90.9999 57.317 90.9999C57.5949 90.9999 57.873 90.8939 58.085 90.6817L60.865 87.9018V89.9139C60.865 90.5137 61.3513 91 61.9511 91C62.5509 91 63.0372 90.5137 63.0372 89.9139V87.9018L65.8172 90.6818C66.0292 90.8939 66.3072 91 66.5851 91C66.863 91 67.1411 90.894 67.3531 90.6818C67.7772 90.2577 67.7772 89.57 67.3531 89.1459L63.0372 84.8301V79.2832C65.0297 78.7946 66.5127 76.9943 66.5127 74.8532V72.2043C71.2216 68.7877 74.1577 63.4837 74.5702 57.7198C74.6109 57.7245 74.6519 57.7278 74.6934 57.7278C74.7505 57.7278 74.8083 57.7233 74.8663 57.714L84.1344 56.2312C84.1417 56.23 84.1488 56.2287 84.156 56.2275C88.7744 55.3927 92 51.6184 92 47.0489C92 42.4822 88.6539 38.6824 84.2847 37.9723ZM63.1096 19.1722C66.9824 19.1722 70.1331 22.3229 70.1331 26.1957C70.1331 26.5493 70.1041 26.9083 70.0485 27.2669L65.1728 37.0185C64.3349 32.5723 60.6478 29.1201 56.0861 28.6423V26.1957C56.0861 22.3229 59.2368 19.1722 63.1096 19.1722ZM56.9738 46.8792L58.3474 42.7584C58.4577 42.4272 58.4023 42.0631 58.1981 41.7799C57.9939 41.4966 57.666 41.3288 57.317 41.3288H52.683C52.3338 41.3288 52.006 41.4966 51.8019 41.7799C51.5977 42.0631 51.5423 42.4272 51.6526 42.7584L53.0262 46.8792C49.4652 45.9937 46.818 42.7704 46.818 38.9393C46.818 34.4278 50.4885 30.7573 55 30.7573C59.5115 30.7573 63.182 34.4278 63.182 38.9393C63.182 42.7704 60.5348 45.9937 56.9738 46.8792ZM54.1899 43.501H55.8101L55 45.9314L54.1899 43.501ZM46.8904 19.1722C50.7632 19.1722 53.9139 22.3229 53.9139 26.1957V28.6423C49.3523 29.1201 45.6651 32.5721 44.8272 37.0185L39.9515 27.2669C39.8959 26.9083 39.8669 26.5493 39.8669 26.1957C39.8669 22.3229 43.0176 19.1722 46.8904 19.1722ZM20.1722 47.0489C20.1722 43.2936 23.1348 40.2175 26.8455 40.0343L34.6536 45.8904C34.849 46.037 35.0776 46.1076 35.3044 46.1076C35.6346 46.1076 35.9609 45.9576 36.1742 45.6732C36.534 45.1934 36.4367 44.5125 35.9569 44.1526L28.5265 38.5798C28.4945 38.4929 28.4524 38.409 28.3978 38.3311C27.5641 37.1432 27.1234 35.7511 27.1234 34.3053C27.1233 30.4325 30.274 27.2818 34.1468 27.2818C35.5929 27.2818 36.9799 27.7239 38.1691 28.5595L43.943 40.1073C38.8347 43.6015 35.6371 49.3535 35.3941 55.5557L26.237 54.0905C22.6646 53.3182 20.1722 50.4263 20.1722 47.0489ZM45.0941 41.9522C45.9335 44.7066 47.8921 46.9765 50.4381 48.2316C50.4329 52.5671 49.0135 56.5592 46.2191 60.097C44.2237 62.6232 41.8706 64.4363 40.1167 65.4229C38.4617 62.7198 37.5499 59.5793 37.5499 56.317C37.5499 50.5753 40.4094 45.1927 45.0941 41.9522ZM69.8833 65.4226C69.2262 65.0524 68.2993 64.4627 67.2183 63.5819C66.7533 63.2029 66.069 63.2729 65.6902 63.7379C65.3113 64.2029 65.3811 64.8871 65.8461 65.266C66.7632 66.0132 67.7231 66.6806 68.6296 67.2075C67.5551 68.5515 66.2754 69.7474 64.8148 70.7431C64.5181 70.9454 64.3405 71.2814 64.3405 71.6405V74.8532C64.3405 76.1707 63.2686 77.2427 61.9511 77.2427C60.6336 77.2427 59.5616 76.1707 59.5616 74.8532V74.5164C59.5616 74.1929 59.4174 73.8862 59.1682 73.6798C58.919 73.4734 58.5905 73.389 58.2728 73.4494C57.1627 73.6603 56.0615 73.7671 55 73.7671C53.9385 73.7671 52.8373 73.6603 51.7271 73.4494C51.409 73.389 51.081 73.4734 50.8317 73.6798C50.5824 73.8862 50.4382 74.1927 50.4382 74.5164V74.8532C50.4382 76.1707 49.3663 77.2427 48.0488 77.2427C46.7313 77.2427 45.6593 76.1707 45.6593 74.8532V71.6405C45.6593 71.2814 45.4818 70.9454 45.1851 70.7431C43.7249 69.7477 42.4456 68.5524 41.3714 67.2089C45.6136 64.7558 52.2388 58.5305 52.5942 49.0084C52.9904 49.1031 53.395 49.1752 53.8073 49.2227L53.9695 49.7094C54.1174 50.153 54.5324 50.4521 54.9999 50.4521C55.4673 50.4521 55.8824 50.1529 56.0302 49.7094L56.1924 49.2227C56.6043 49.1752 57.0086 49.1033 57.4045 49.0085C57.4724 50.8239 57.771 52.6059 58.2954 54.3166C58.4388 54.784 58.8687 55.0847 59.3334 55.0847C59.4388 55.0847 59.546 55.0692 59.6522 55.0366C60.2256 54.8608 60.5481 54.2534 60.3722 53.6798C59.8365 51.9321 59.5641 50.099 59.5618 48.2312C62.1076 46.9761 64.0661 44.7061 64.9056 41.9519C69.5905 45.1926 72.4501 50.5757 72.4501 56.317C72.4501 59.5793 71.5383 62.7197 69.8833 65.4226ZM83.7798 54.0879L74.6059 55.5557C74.3629 49.3538 71.1652 43.6013 66.057 40.1073L71.8309 28.5595C73.0201 27.7239 74.4071 27.2818 75.8532 27.2818C79.726 27.2818 82.8767 30.4325 82.8767 34.3053C82.8767 35.7511 82.436 37.1432 81.6023 38.3311C81.5476 38.409 81.5056 38.4929 81.4736 38.5798L74.0431 44.1526C73.5633 44.5125 73.466 45.1934 73.8258 45.6732C74.0393 45.9577 74.3654 46.1076 74.6956 46.1076C74.9224 46.1076 75.151 46.0368 75.3464 45.8904L83.1545 40.0343C86.8652 40.2175 89.8278 43.2936 89.8278 47.0489C89.8278 50.5466 87.3415 53.4397 83.7798 54.0879Z" fill="black"/>
<path d="M51.5236 37.8533C51.2383 37.8533 50.9574 37.9691 50.7561 38.1719C50.5534 38.3732 50.4375 38.6541 50.4375 38.9394C50.4375 39.2247 50.5534 39.5056 50.7561 39.7069C50.9574 39.9096 51.2383 40.0255 51.5236 40.0255C51.8089 40.0255 52.0898 39.9096 52.2911 39.7069C52.4939 39.5056 52.6097 39.2247 52.6097 38.9394C52.6097 38.6526 52.4939 38.3732 52.2911 38.1719C52.0898 37.9691 51.8089 37.8533 51.5236 37.8533Z" fill="black"/>
<path d="M58.4728 37.8533C58.1875 37.8533 57.9066 37.9691 57.7053 38.1719C57.5026 38.3732 57.3867 38.6541 57.3867 38.9394C57.3867 39.2247 57.5026 39.5056 57.7053 39.7069C57.9066 39.9096 58.1875 40.0255 58.4728 40.0255C58.7581 40.0255 59.039 39.9096 59.2403 39.7069C59.4431 39.5056 59.5589 39.2247 59.5589 38.9394C59.5589 38.6541 59.4431 38.3732 59.2403 38.1719C59.039 37.9691 58.7581 37.8533 58.4728 37.8533Z" fill="black"/>
<path d="M62.3636 58.0698C62.0499 57.5585 61.3812 57.3982 60.87 57.7118C60.3587 58.0255 60.1983 58.6943 60.512 59.2055C61.0218 60.0365 61.5975 60.8516 62.2233 61.6279C62.4379 61.8941 62.7523 62.0324 63.0694 62.0324C63.3087 62.0324 63.5496 61.9536 63.7505 61.7917C64.2175 61.4152 64.2908 60.7315 63.9144 60.2645C63.3468 59.5604 62.825 58.822 62.3636 58.0698Z" fill="black"/>
</g>
<defs>
<filter id="filter0_i_2546:27772" x="107" y="0" width="84.0703" height="122.286" filterUnits="userSpaceOnUse" color-interpolation-filters="sRGB">
<feFlood flood-opacity="0" result="BackgroundImageFix"/>
<feBlend mode="normal" in="SourceGraphic" in2="BackgroundImageFix" result="shape"/>
<feColorMatrix in="SourceAlpha" type="matrix" values="0 0 0 0 0 0 0 0 0 0 0 0 0 0 0 0 0 0 127 0" result="hardAlpha"/>
<feOffset dy="15.2857"/>
<feGaussianBlur stdDeviation="15.2857"/>
<feComposite in2="hardAlpha" operator="arithmetic" k2="-1" k3="1"/>
<feColorMatrix type="matrix" values="0 0 0 0 0.470833 0 0 0 0 0.360874 0 0 0 0 0.284462 0 0 0 0.06 0"/>
<feBlend mode="normal" in2="shape" result="effect1_innerShadow_2546:27772"/>
</filter>
<clipPath id="clip0_2546:27772">
<rect width="191" height="107" rx="19.11" fill="white"/>
</clipPath>
</defs>
</svg>
